<svg width="100" height="50" viewBox="0 0 100 50" fill="none" xmlns="http://www.w3.org/2000/svg">
<path d="M25.375 2.34375H20.9609V5.63281H25.0078V7.08594H20.9609V10.5547H25.375V12H19.2266V0.898438H25.375V2.34375Z" fill="#374655"/>
<path d="M35.6484 0.898438C35.4193 1.38802 35.1771 1.8776 34.9219 2.36719C34.6719 2.85677 34.4089 3.33854 34.1328 3.8125C33.862 4.28646 33.5781 4.7526 33.2812 5.21094C32.9844 5.66406 32.6823 6.10156 32.375 6.52344C33.0104 7.41406 33.6146 8.3151 34.1875 9.22656C34.7656 10.138 35.3047 11.0625 35.8047 12H33.8438C33.4323 11.2552 32.987 10.5026 32.5078 9.74219C32.0286 8.98177 31.5156 8.22917 30.9688 7.48438C30.6979 7.86458 30.4349 8.25 30.1797 8.64062C29.9297 9.03125 29.6927 9.41667 29.4688 9.79688C29.25 10.1771 29.0443 10.5547 28.8516 10.9297C28.6641 11.2995 28.4922 11.6562 28.3359 12H26.5312C26.9792 11.0104 27.4896 10.0234 28.0625 9.03906C28.6406 8.05469 29.2786 7.08854 29.9766 6.14062C29.3724 5.29167 28.7943 4.43229 28.2422 3.5625C27.6953 2.69271 27.1771 1.80469 26.6875 0.898438H28.6562C29.0573 1.61198 29.4844 2.32812 29.9375 3.04688C30.3906 3.76042 30.8724 4.47396 31.3828 5.1875C31.8724 4.48958 32.3229 3.78385 32.7344 3.07031C33.1458 2.35677 33.513 1.63281 33.8359 0.898438H35.6484Z" fill="#374655"/>
<path d="M37.5391 0.898438C37.9505 0.861979 38.3281 0.838542 38.6719 0.828125C39.0156 0.817708 39.3307 0.8125 39.6172 0.8125C40.4349 0.8125 41.1667 0.898438 41.8125 1.07031C42.4583 1.23698 43.0052 1.47917 43.4531 1.79688C43.9062 2.11458 44.25 2.50521 44.4844 2.96875C44.724 3.42708 44.8438 3.94792 44.8438 4.53125C44.8438 5.15625 44.7188 5.71354 44.4688 6.20312C44.224 6.69271 43.8724 7.10938 43.4141 7.45312C42.9557 7.79688 42.3932 8.0599 41.7266 8.24219C41.0651 8.41927 40.3177 8.50781 39.4844 8.50781C39.4531 8.50781 39.4193 8.50781 39.3828 8.50781C39.3516 8.5026 39.3151 8.5 39.2734 8.5V12H37.5391V0.898438ZM39.2734 7.03906C39.388 7.03906 39.4974 7.04167 39.6016 7.04688C39.7057 7.04688 39.8099 7.04688 39.9141 7.04688C40.4036 7.04688 40.8438 6.99219 41.2344 6.88281C41.625 6.76823 41.9557 6.60677 42.2266 6.39844C42.4974 6.1849 42.7031 5.92708 42.8438 5.625C42.9896 5.32292 43.0625 4.98438 43.0625 4.60938C43.0625 4.24479 42.9896 3.91927 42.8438 3.63281C42.7031 3.34635 42.4974 3.10156 42.2266 2.89844C41.9557 2.69531 41.6224 2.54167 41.2266 2.4375C40.8307 2.32812 40.3828 2.27344 39.8828 2.27344C39.7839 2.27344 39.6823 2.27604 39.5781 2.28125C39.4792 2.28125 39.3776 2.28906 39.2734 2.30469V7.03906Z" fill="#374655"/>
<path d="M48.5859 10.5234H52.8203V12H46.8516V0.898438H48.5859V10.5234Z" fill="#374655"/>
<path d="M58.9375 0.742188C59.401 0.742188 59.8542 0.796875 60.2969 0.90625C60.7396 1.01562 61.1562 1.17708 61.5469 1.39062C61.9427 1.60417 62.3047 1.86979 62.6328 2.1875C62.9609 2.50521 63.2448 2.875 63.4844 3.29688C63.724 3.71354 63.9115 4.17969 64.0469 4.69531C64.1823 5.21094 64.25 5.77604 64.25 6.39062C64.25 7.01562 64.1797 7.59115 64.0391 8.11719C63.9036 8.64323 63.7135 9.11979 63.4688 9.54688C63.2292 9.97396 62.9401 10.3516 62.6016 10.6797C62.2682 11.0026 61.901 11.2734 61.5 11.4922C61.099 11.7109 60.6719 11.875 60.2188 11.9844C59.7656 12.0938 59.2995 12.1484 58.8203 12.1484C58.3568 12.1484 57.9036 12.0938 57.4609 11.9844C57.0182 11.875 56.599 11.7161 56.2031 11.5078C55.8125 11.2943 55.4505 11.0286 55.1172 10.7109C54.7839 10.3932 54.4974 10.026 54.2578 9.60938C54.0182 9.1875 53.8307 8.71875 53.6953 8.20312C53.5651 7.6875 53.5 7.1224 53.5 6.50781C53.5 5.88281 53.5677 5.30729 53.7031 4.78125C53.8385 4.25 54.0286 3.77083 54.2734 3.34375C54.5182 2.91667 54.8099 2.54167 55.1484 2.21875C55.487 1.89062 55.8568 1.61719 56.2578 1.39844C56.6589 1.17969 57.0859 1.01562 57.5391 0.90625C57.9974 0.796875 58.4635 0.742188 58.9375 0.742188ZM58.8516 2.24219C58.3984 2.24219 57.9557 2.33333 57.5234 2.51562C57.0964 2.69792 56.7161 2.96615 56.3828 3.32031C56.0495 3.66927 55.7812 4.10417 55.5781 4.625C55.375 5.14583 55.2734 5.74219 55.2734 6.41406C55.2734 7.11198 55.3724 7.72656 55.5703 8.25781C55.7734 8.78906 56.0417 9.23177 56.375 9.58594C56.7083 9.9401 57.0938 10.2057 57.5312 10.3828C57.974 10.5599 58.4349 10.6484 58.9141 10.6484C59.362 10.6484 59.7995 10.5599 60.2266 10.3828C60.6536 10.2005 61.0339 9.9349 61.3672 9.58594C61.7005 9.23177 61.9661 8.79427 62.1641 8.27344C62.3672 7.7526 62.4688 7.15365 62.4688 6.47656C62.4688 5.77865 62.3698 5.16406 62.1719 4.63281C61.974 4.10156 61.7057 3.65885 61.3672 3.30469C61.0339 2.95052 60.6484 2.6849 60.2109 2.50781C59.7786 2.33073 59.3255 2.24219 58.8516 2.24219Z" fill="#374655"/>
<path d="M66.6016 0.898438C66.987 0.872396 67.362 0.851562 67.7266 0.835938C68.0911 0.820312 68.4245 0.8125 68.7266 0.8125C69.5339 0.8125 70.2578 0.890625 70.8984 1.04688C71.5391 1.19792 72.0781 1.42188 72.5156 1.71875C72.9583 2.01562 73.2969 2.375 73.5312 2.79688C73.7656 3.21354 73.8828 3.6901 73.8828 4.22656C73.8828 4.60156 73.8281 4.95052 73.7188 5.27344C73.6094 5.59635 73.4479 5.89323 73.2344 6.16406C73.026 6.42969 72.7682 6.66667 72.4609 6.875C72.1589 7.07812 71.8125 7.25 71.4219 7.39062C71.875 8.08333 72.3255 8.81771 72.7734 9.59375C73.2214 10.3646 73.6589 11.1667 74.0859 12H72.1875C71.8333 11.3281 71.4427 10.6354 71.0156 9.92188C70.5938 9.20833 70.1536 8.50781 69.6953 7.82031C69.4922 7.84635 69.276 7.86198 69.0469 7.86719C68.8229 7.8724 68.5859 7.8724 68.3359 7.86719V12H66.6016V0.898438ZM68.3359 6.42969C68.4557 6.4349 68.5729 6.4401 68.6875 6.44531C68.8021 6.44531 68.9167 6.44531 69.0312 6.44531C69.5156 6.44531 69.9479 6.39583 70.3281 6.29688C70.7083 6.19792 71.0286 6.05729 71.2891 5.875C71.5495 5.69271 71.7474 5.47135 71.8828 5.21094C72.0182 4.94531 72.0859 4.65104 72.0859 4.32812C72.0859 4.00521 72.0156 3.71875 71.875 3.46875C71.7396 3.21354 71.5391 2.9974 71.2734 2.82031C71.013 2.64323 70.6901 2.50781 70.3047 2.41406C69.9193 2.3151 69.4818 2.26562 68.9922 2.26562C68.888 2.26562 68.7812 2.26823 68.6719 2.27344C68.5625 2.27344 68.4505 2.27604 68.3359 2.28125V6.42969Z" fill="#374655"/>
<path d="M82.2656 2.34375H77.8516V5.63281H81.8984V7.08594H77.8516V10.5547H82.2656V12H76.1172V0.898438H82.2656V2.34375Z" fill="#374655"/>
<path d="M0 50C16.3386 41.6917 33.0278 34.2481 50.0404 27.8947V20C27.7703 28.7218 12.0248 38.797 0 50Z" fill="#000080"/>
<path d="M50.0404 20V27.8947C67.0261 34.2105 83.6883 41.6541 100 49.9624C88.0022 38.7594 72.2567 28.7218 50.0404 20Z" fill="#000066"/>
</svg>
