<svg width="390" height="844" viewBox="0 0 390 844" fill="none" xmlns="http://www.w3.org/2000/svg">
<g clip-path="url(#clip0_97_2)">
<rect width="390" height="844" fill="white"/>
<g clip-path="url(#clip1_97_2)">
<path d="M390 0H0V246H390V0Z" fill="#E2ECF4"/>
</g>
<g clip-path="url(#clip2_97_2)">
<path d="M521.77 233.28C521.77 233.28 521.74 233.23 521.71 233.23H502.99C486.45 233.23 472.35 220.39 471.7 203.86C471.36 195.39 474.49 187.63 479.77 181.9C479.8 181.87 479.78 181.81 479.74 181.8C475.22 180.63 470.48 180 465.6 180C446.35 180 429.36 189.67 419.21 204.41C406.76 222.52 386.11 233.23 364.14 233.23H360.19C343.65 233.23 329.55 220.39 328.9 203.86C328.56 195.39 331.69 187.63 336.97 181.9C337 181.87 336.98 181.81 336.94 181.8C332.42 180.63 327.68 180 322.8 180C303.55 180 286.56 189.67 276.41 204.41C263.96 222.52 243.31 233.23 221.34 233.23H216.2C199.66 233.23 185.56 220.39 184.9 203.86C184.57 195.39 187.69 187.63 192.97 181.9C193 181.87 192.99 181.81 192.95 181.8C188.43 180.63 183.69 180 178.81 180C159.55 180 142.56 189.67 132.42 204.41C119.97 222.52 99.32 233.23 77.35 233.23H73.4C56.86 233.23 42.76 220.39 42.1 203.86C41.77 195.39 44.89 187.63 50.17 181.9C50.2 181.87 50.19 181.81 50.15 181.8C45.63 180.63 40.89 180 36.01 180C16.75 180 -0.239998 189.67 -10.38 204.41C-22.83 222.52 -43.48 233.23 -65.45 233.23H-93.94C-93.94 233.23 -94 233.25 -94 233.28V292.47C-94 292.47 -93.97 292.53 -93.94 292.53H521.8C521.8 292.53 521.86 292.5 521.86 292.47V236.26C521.86 235.26 521.82 234.27 521.77 233.28Z" fill="#88CCFF" stroke="#0071BC" stroke-width="6" stroke-miterlimit="10" stroke-linecap="round"/>
</g>
<g clip-path="url(#clip3_97_2)">
<path d="M538 239H-77V422H538V239Z" fill="#88CCFF"/>
</g>
<g clip-path="url(#clip4_97_2)">
<path d="M472.77 349.28C472.77 349.28 472.74 349.23 472.71 349.23H453.99C437.45 349.23 423.35 336.39 422.7 319.86C422.36 311.39 425.49 303.63 430.77 297.9C430.8 297.87 430.78 297.81 430.74 297.8C426.22 296.63 421.48 296 416.6 296C397.35 296 380.36 305.67 370.21 320.41C357.76 338.52 337.11 349.23 315.14 349.23H311.19C294.65 349.23 280.55 336.39 279.9 319.86C279.56 311.39 282.69 303.63 287.97 297.9C288 297.87 287.98 297.81 287.94 297.8C283.42 296.63 278.68 296 273.8 296C254.55 296 237.56 305.67 227.41 320.41C214.96 338.52 194.31 349.23 172.34 349.23H167.2C150.66 349.23 136.56 336.39 135.9 319.86C135.57 311.39 138.69 303.63 143.97 297.9C144 297.87 143.99 297.81 143.95 297.8C139.43 296.63 134.69 296 129.81 296C110.55 296 93.56 305.67 83.42 320.41C70.97 338.52 50.32 349.23 28.35 349.23H24.4C7.85999 349.23 -6.23999 336.39 -6.89999 319.86C-7.23 311.39 -4.11 303.63 1.17 297.9C1.2 297.87 1.18999 297.81 1.14999 297.8C-3.37001 296.63 -8.11 296 -12.99 296C-32.25 296 -49.24 305.67 -59.38 320.41C-71.83 338.52 -92.48 349.23 -114.45 349.23H-142.94C-142.94 349.23 -143 349.25 -143 349.28V408.47C-143 408.47 -142.97 408.53 -142.94 408.53H472.8C472.8 408.53 472.86 408.5 472.86 408.47V352.26C472.86 351.26 472.82 350.27 472.77 349.28Z" fill="#88CCFF" stroke="#0071BC" stroke-width="6" stroke-miterlimit="10" stroke-linecap="round"/>
</g>
<g clip-path="url(#clip5_97_2)">
<path d="M525 390H-90V573H525V390Z" fill="#88CCFF"/>
</g>
<g clip-path="url(#clip6_97_2)">
<path d="M521.77 468.28C521.77 468.28 521.74 468.23 521.71 468.23H502.99C486.45 468.23 472.35 455.39 471.7 438.86C471.36 430.39 474.49 422.63 479.77 416.9C479.8 416.87 479.78 416.81 479.74 416.8C475.22 415.63 470.48 415 465.6 415C446.35 415 429.36 424.67 419.21 439.41C406.76 457.52 386.11 468.23 364.14 468.23H360.19C343.65 468.23 329.55 455.39 328.9 438.86C328.56 430.39 331.69 422.63 336.97 416.9C337 416.87 336.98 416.81 336.94 416.8C332.42 415.63 327.68 415 322.8 415C303.55 415 286.56 424.67 276.41 439.41C263.96 457.52 243.31 468.23 221.34 468.23H216.2C199.66 468.23 185.56 455.39 184.9 438.86C184.57 430.39 187.69 422.63 192.97 416.9C193 416.87 192.99 416.81 192.95 416.8C188.43 415.63 183.69 415 178.81 415C159.55 415 142.56 424.67 132.42 439.41C119.97 457.52 99.32 468.23 77.35 468.23H73.4C56.86 468.23 42.76 455.39 42.1 438.86C41.77 430.39 44.89 422.63 50.17 416.9C50.2 416.87 50.19 416.81 50.15 416.8C45.63 415.63 40.89 415 36.01 415C16.75 415 -0.239998 424.67 -10.38 439.41C-22.83 457.52 -43.48 468.23 -65.45 468.23H-93.94C-93.94 468.23 -94 468.25 -94 468.28V527.47C-94 527.47 -93.97 527.53 -93.94 527.53H521.8C521.8 527.53 521.86 527.5 521.86 527.47V471.26C521.86 470.26 521.82 469.27 521.77 468.28Z" fill="#88CCFF" stroke="#0071BC" stroke-width="6" stroke-miterlimit="10" stroke-linecap="round"/>
</g>
<g clip-path="url(#clip7_97_2)">
<path d="M482 569H-133V873H482V569Z" fill="#F9E7C5"/>
<path d="M181.234 623.82H170.289V632.797H180.273V636.195H170.289V647H166.258V620.398H181.234V623.82ZM192.133 647H188.102V620.398H192.133V647ZM224.055 647H219.156L206.312 627.781C206.047 627.391 205.805 626.992 205.586 626.586C205.367 626.18 205.156 625.766 204.953 625.344C204.984 625.766 205.008 626.18 205.023 626.586C205.039 626.992 205.047 627.398 205.047 627.805V647H201.414V620.398H206.289L219.156 639.617C219.422 640.008 219.656 640.406 219.859 640.812C220.078 641.203 220.289 641.602 220.492 642.008C220.445 641.602 220.414 641.195 220.398 640.789C220.383 640.383 220.375 639.977 220.375 639.57V620.398H224.055V647ZM233.336 620.398C233.82 620.367 234.289 620.344 234.742 620.328C235.195 620.297 235.633 620.273 236.055 620.258C236.477 620.242 236.898 620.234 237.32 620.234C237.758 620.219 238.203 620.211 238.656 620.211C241.406 620.211 243.859 620.508 246.016 621.102C248.172 621.695 249.992 622.555 251.477 623.68C252.977 624.789 254.117 626.156 254.898 627.781C255.695 629.391 256.094 631.211 256.094 633.242C256.094 635.43 255.688 637.391 254.875 639.125C254.078 640.859 252.922 642.328 251.406 643.531C249.906 644.719 248.07 645.625 245.898 646.25C243.742 646.875 241.305 647.188 238.586 647.188C238.133 647.188 237.688 647.18 237.25 647.164C236.828 647.164 236.406 647.156 235.984 647.141C235.562 647.125 235.133 647.102 234.695 647.07C234.258 647.055 233.805 647.031 233.336 647V620.398ZM237.367 643.695C237.727 643.711 238.086 643.719 238.445 643.719C238.82 643.719 239.188 643.719 239.547 643.719C241.469 643.719 243.195 643.492 244.727 643.039C246.273 642.57 247.578 641.898 248.641 641.023C249.703 640.148 250.516 639.078 251.078 637.812C251.656 636.547 251.945 635.109 251.945 633.5C251.945 631.953 251.664 630.578 251.102 629.375C250.539 628.156 249.719 627.125 248.641 626.281C247.562 625.438 246.25 624.797 244.703 624.359C243.172 623.906 241.422 623.68 239.453 623.68C239.094 623.68 238.742 623.68 238.398 623.68C238.07 623.68 237.727 623.695 237.367 623.727V643.695ZM295.328 620.398C294.797 621.961 294.211 623.484 293.57 624.969C292.93 626.438 292.234 627.891 291.484 629.328C290.734 630.766 289.922 632.203 289.047 633.641C288.172 635.062 287.234 636.508 286.234 637.977V647H282.203V637.977C281.188 636.508 280.242 635.062 279.367 633.641C278.508 632.219 277.695 630.789 276.93 629.352C276.18 627.898 275.477 626.438 274.82 624.969C274.18 623.5 273.594 621.977 273.062 620.398H277.234C277.641 621.586 278.094 622.766 278.594 623.938C279.094 625.109 279.633 626.273 280.211 627.43C280.805 628.586 281.438 629.742 282.109 630.898C282.781 632.055 283.508 633.203 284.289 634.344C285.039 633.156 285.742 632 286.398 630.875C287.07 629.75 287.695 628.617 288.273 627.477C288.852 626.32 289.383 625.164 289.867 624.008C290.367 622.852 290.836 621.648 291.273 620.398H295.328ZM312.156 619.977C313.922 619.977 315.609 620.273 317.219 620.867C318.828 621.445 320.25 622.312 321.484 623.469C322.734 624.609 323.727 626.031 324.461 627.734C325.211 629.422 325.586 631.383 325.586 633.617C325.586 635.852 325.203 637.828 324.438 639.547C323.688 641.266 322.68 642.711 321.414 643.883C320.164 645.055 318.711 645.938 317.055 646.531C315.414 647.125 313.695 647.422 311.898 647.422C310.133 647.422 308.438 647.133 306.812 646.555C305.203 645.977 303.781 645.109 302.547 643.953C301.312 642.797 300.32 641.375 299.57 639.688C298.836 638 298.469 636.039 298.469 633.805C298.469 631.57 298.844 629.594 299.594 627.875C300.344 626.156 301.344 624.711 302.594 623.539C303.859 622.367 305.312 621.484 306.953 620.891C308.609 620.281 310.344 619.977 312.156 619.977ZM311.945 623.469C310.773 623.469 309.625 623.695 308.5 624.148C307.375 624.586 306.375 625.242 305.5 626.117C304.625 626.977 303.922 628.039 303.391 629.305C302.875 630.555 302.617 631.992 302.617 633.617C302.617 635.32 302.875 636.82 303.391 638.117C303.922 639.398 304.625 640.477 305.5 641.352C306.375 642.211 307.383 642.859 308.523 643.297C309.68 643.719 310.883 643.93 312.133 643.93C313.289 643.93 314.43 643.711 315.555 643.273C316.68 642.836 317.672 642.188 318.531 641.328C319.406 640.453 320.109 639.391 320.641 638.141C321.188 636.875 321.461 635.43 321.461 633.805C321.461 632.117 321.195 630.625 320.664 629.328C320.148 628.031 319.453 626.953 318.578 626.094C317.703 625.219 316.688 624.562 315.531 624.125C314.391 623.688 313.195 623.469 311.945 623.469ZM353.383 637.648C353.383 639.258 353.125 640.672 352.609 641.891C352.094 643.109 351.367 644.125 350.43 644.938C349.508 645.75 348.406 646.367 347.125 646.789C345.844 647.195 344.43 647.398 342.883 647.398C341.398 647.398 340.031 647.195 338.781 646.789C337.531 646.383 336.453 645.781 335.547 644.984C334.641 644.188 333.93 643.195 333.414 642.008C332.898 640.805 332.641 639.414 332.641 637.836V620.398H336.695V637.672C336.695 638.766 336.867 639.703 337.211 640.484C337.555 641.266 338.016 641.914 338.594 642.43C339.172 642.93 339.852 643.305 340.633 643.555C341.414 643.789 342.242 643.906 343.117 643.906C343.992 643.906 344.812 643.789 345.578 643.555C346.344 643.32 347.016 642.953 347.594 642.453C348.172 641.953 348.625 641.328 348.953 640.578C349.297 639.812 349.469 638.906 349.469 637.859V620.398H353.383V637.648ZM362.148 620.398C363.211 620.32 364.203 620.266 365.125 620.234C366.062 620.203 366.859 620.188 367.516 620.188C369.656 620.188 371.547 620.375 373.188 620.75C374.828 621.125 376.203 621.672 377.312 622.391C378.422 623.094 379.258 623.961 379.82 624.992C380.398 626.008 380.688 627.164 380.688 628.461C380.688 630.273 380.164 631.836 379.117 633.148C378.086 634.445 376.539 635.43 374.477 636.102C375.664 637.82 376.812 639.578 377.922 641.375C379.047 643.156 380.156 645.031 381.25 647H376.68C375.758 645.359 374.773 643.711 373.727 642.055C372.68 640.398 371.578 638.75 370.422 637.109C370.047 637.156 369.68 637.195 369.32 637.227C368.977 637.242 368.633 637.258 368.289 637.273C367.961 637.273 367.617 637.273 367.258 637.273C366.914 637.273 366.555 637.258 366.18 637.227V647H362.148V620.398ZM366.18 633.898C366.555 633.914 366.914 633.922 367.258 633.922C367.602 633.922 367.938 633.922 368.266 633.922C371 633.922 373.062 633.453 374.453 632.516C375.844 631.578 376.539 630.289 376.539 628.648C376.539 627.883 376.367 627.195 376.023 626.586C375.68 625.961 375.156 625.43 374.453 624.992C373.766 624.539 372.898 624.195 371.852 623.961C370.82 623.727 369.609 623.609 368.219 623.609C367.906 623.609 367.578 623.617 367.234 623.633C366.906 623.648 366.555 623.656 366.18 623.656V633.898ZM253.586 655.398C253.07 659.867 252.281 664.344 251.219 668.828C250.172 673.312 248.891 677.703 247.375 682H241.984L236.125 660.672L230.266 682H224.945C223.414 677.703 222.117 673.312 221.055 668.828C220.008 664.344 219.227 659.867 218.711 655.398H222.789C223.008 657.305 223.281 659.234 223.609 661.188C223.953 663.141 224.336 665.086 224.758 667.023C225.195 668.961 225.672 670.875 226.188 672.766C226.703 674.641 227.258 676.461 227.852 678.227L233.992 655.398H238.375L244.586 678.297C245.164 676.531 245.711 674.703 246.227 672.812C246.742 670.922 247.211 669.008 247.633 667.07C248.07 665.133 248.453 663.18 248.781 661.211C249.125 659.242 249.414 657.305 249.648 655.398H253.586ZM270.25 655.398C271.203 657.555 272.109 659.75 272.969 661.984C273.844 664.203 274.648 666.438 275.383 668.688C276.133 670.922 276.82 673.156 277.445 675.391C278.07 677.625 278.633 679.828 279.133 682H275.125C274.906 681.047 274.68 680.078 274.445 679.094C274.211 678.109 273.953 677.117 273.672 676.117H261.789C261.508 677.117 261.25 678.109 261.016 679.094C260.781 680.078 260.555 681.047 260.336 682H256.422C256.922 679.828 257.484 677.625 258.109 675.391C258.734 673.156 259.422 670.922 260.172 668.688C260.922 666.438 261.727 664.203 262.586 661.984C263.445 659.75 264.352 657.555 265.305 655.398H270.25ZM272.758 672.789C272.039 670.414 271.258 668.062 270.414 665.734C269.57 663.406 268.68 661.156 267.742 658.984C266.805 661.156 265.914 663.406 265.07 665.734C264.227 668.062 263.445 670.414 262.727 672.789H272.758ZM304.094 655.398C303.156 659.805 301.953 664.242 300.484 668.711C299.016 673.164 297.281 677.594 295.281 682H290.148C288.148 677.594 286.414 673.164 284.945 668.711C283.477 664.242 282.266 659.805 281.312 655.398H285.438C285.828 657.258 286.289 659.156 286.82 661.094C287.352 663.031 287.922 664.977 288.531 666.93C289.156 668.867 289.82 670.797 290.523 672.719C291.242 674.641 291.992 676.492 292.773 678.273C293.539 676.477 294.273 674.625 294.977 672.719C295.68 670.797 296.344 668.867 296.969 666.93C297.594 664.977 298.164 663.031 298.68 661.094C299.211 659.156 299.68 657.258 300.086 655.398H304.094ZM325.609 658.82H314.195V666.766H324.695V670.164H314.195V678.602H325.609V682H310.258V655.398H325.609V658.82Z" fill="#374655"/>
</g>
<g clip-path="url(#clip8_97_2)">
<path d="M540.307 551.5C540.307 562.448 532.559 571.317 522.996 571.317C521.526 571.317 520.085 571.111 518.727 570.715C515.275 580.235 509.329 586.518 502.579 586.518C498.283 586.518 494.305 583.963 491.089 579.663C488.303 580.822 485.296 581.456 482.149 581.456C480.5 581.456 478.892 581.282 477.34 580.949C469.315 593.816 456.162 602.194 441.303 602.194C426.445 602.194 412.28 593.15 404.366 579.441C403.091 579.679 401.788 579.806 400.457 579.806C399.584 579.806 398.711 579.759 397.866 579.647C392.862 583.836 386.694 586.28 380.041 586.28C374.165 586.28 368.676 584.376 364.033 581.06C357.962 590.262 349.078 596.069 339.195 596.069C338.863 596.069 338.53 596.069 338.211 596.038C332.362 599.386 325.751 601.274 318.765 601.274C310.061 601.274 301.953 598.338 295.161 593.309C290.116 597.688 284.226 600.195 277.919 600.195C269.368 600.195 261.537 595.562 255.604 587.914C248.092 595.562 238.21 600.195 227.385 600.195C219.956 600.195 212.97 598.021 206.886 594.181C205.444 594.372 203.961 594.499 202.478 594.61C197.627 597.418 192.235 598.973 186.539 598.973C181.161 598.973 176.061 597.577 171.431 595.07C164.21 601.512 155.298 605.304 145.693 605.304C136.088 605.304 126.843 601.369 119.553 594.705C116.448 597.101 113.038 598.767 109.448 599.544C102.366 606.272 93.7309 610.207 84.4169 610.207C71.9981 610.207 60.7991 603.194 52.8433 591.944C48.2417 590.278 44.0282 587.613 40.3969 584.169C38.6643 584.55 36.8902 584.741 35.0607 584.741C33.2311 584.741 31.3739 584.534 29.5997 584.138C25.1368 586.835 20.0501 588.358 14.6446 588.358C12.2329 588.358 9.87666 588.057 7.60359 587.47C-0.823418 597.847 -12.8541 604.336 -26.2153 604.336C-32.5356 604.336 -38.5648 602.876 -44.0396 600.242C-44.8989 600.306 -45.7582 600.338 -46.6314 600.338C-70.1938 600.338 -89.307 578.473 -89.307 551.5C-89.307 524.527 -70.1938 502.647 -46.6314 502.647C-45.7444 502.647 -44.8712 502.678 -44.0118 502.742C-38.5371 500.108 -32.5217 498.664 -26.2153 498.664C-12.8679 498.664 -0.83728 505.153 7.60359 515.514C9.87666 514.927 12.2329 514.626 14.6446 514.626C20.0501 514.626 25.1368 516.149 29.6136 518.862C31.3739 518.466 33.2034 518.259 35.0607 518.259C36.9179 518.259 38.6643 518.45 40.3969 518.831C44.0282 515.387 48.2279 512.722 52.8295 511.072C60.7714 499.806 71.9843 492.793 84.4169 492.793C93.7309 492.793 102.338 496.728 109.421 503.44C113.024 504.201 116.434 505.867 119.553 508.279C126.843 501.631 135.894 497.68 145.693 497.68C155.492 497.68 164.196 501.472 171.417 507.914C176.047 505.407 181.161 504.011 186.539 504.011C192.249 504.011 197.655 505.582 202.506 508.406C203.379 508.898 204.238 509.437 205.07 510.04C205.666 509.612 206.276 509.215 206.886 508.819C212.97 504.979 219.956 502.805 227.385 502.805C238.21 502.805 248.092 507.438 255.604 515.086C261.537 507.438 269.368 502.805 277.919 502.805C284.226 502.805 290.116 505.312 295.161 509.691C301.953 504.662 310.061 501.726 318.765 501.726C325.751 501.726 332.362 503.614 338.211 506.962C338.53 506.931 338.863 506.931 339.195 506.931C349.078 506.931 357.948 512.722 364.019 521.925C368.662 518.608 374.165 516.704 380.041 516.704C386.694 516.704 392.862 519.148 397.866 523.337C399.432 524.622 400.887 526.097 402.204 527.7C402.869 526.272 403.59 524.876 404.366 523.543C412.294 509.834 425.877 500.806 441.303 500.806C456.73 500.806 469.315 509.184 477.34 522.051C478.892 521.718 480.5 521.544 482.149 521.544C485.296 521.544 488.303 522.178 491.103 523.337C494.305 519.037 498.283 516.482 502.579 516.482C509.329 516.482 515.275 522.765 518.727 532.285C520.085 531.889 521.526 531.683 522.996 531.683C532.559 531.683 540.307 540.552 540.307 551.5Z" fill="#F2F2F2" stroke="#CECECE" stroke-miterlimit="10"/>
<path d="M206.886 508.819C206.276 509.215 205.666 509.612 205.07 510.04C204.238 509.437 203.379 508.898 202.506 508.406C203.989 508.501 205.444 508.644 206.886 508.819Z" fill="#F2F2F2" stroke="#CECECE" stroke-miterlimit="10"/>
</g>
<g clip-path="url(#clip9_97_2)">
<path d="M99.76 702.09C137.48 675.09 164.52 602 164.52 516.04C164.52 481.97 160.27 449.92 152.79 421.96L99.76 474.99V702.09Z" fill="#CC943A"/>
<path d="M46.73 421.97C39.25 449.93 35 481.98 35 516.05C35 602 62.04 675.1 99.76 702.1V475L46.73 421.97Z" fill="#FFB948"/>
<path d="M99.76 445.13V474.99L152.79 421.96C150.67 414.03 148.29 406.43 145.67 399.21L99.76 445.12V445.13Z" fill="#000066"/>
<path d="M99.76 445.13L53.85 399.22C51.23 406.44 48.85 414.04 46.73 421.97L99.76 475V445.14V445.13Z" fill="#000080"/>
<path d="M99.76 445.13L145.67 399.22C142.86 391.46 139.78 384.14 136.45 377.31L99.76 414V445.13Z" fill="#33B3A6"/>
<path d="M63.06 377.31C59.73 384.14 56.65 391.46 53.84 399.22L99.75 445.13V414L63.06 377.31Z" fill="#40E0D0"/>
<path d="M99.7599 330C85.7799 340 73.2799 356.34 63.0699 377.31L99.7599 414V330Z" fill="#FFB948"/>
<path d="M99.76 330V414.01L136.45 377.32C126.24 356.34 113.73 340 99.76 330Z" fill="#CC943A"/>
</g>
<path d="M-38.7976 712.568C-38.7976 712.568 94.5704 545.005 215.72 712.568H-38.7976Z" fill="#F9E7C5"/>
<path d="M-38.7976 712.568C-38.7976 712.568 94.5704 545.005 215.72 712.568" stroke="#F7CA84" stroke-width="3" stroke-miterlimit="10"/>
</g>
<defs>
<clipPath id="clip0_97_2">
<rect width="390" height="844" fill="white"/>
</clipPath>
<clipPath id="clip1_97_2">
<rect width="390" height="246" fill="white"/>
</clipPath>
<clipPath id="clip2_97_2">
<rect width="621.86" height="118.53" fill="white" transform="translate(-97 177)"/>
</clipPath>
<clipPath id="clip3_97_2">
<rect width="615" height="183" fill="white" transform="translate(-77 239)"/>
</clipPath>
<clipPath id="clip4_97_2">
<rect width="621.86" height="118.53" fill="white" transform="translate(-146 293)"/>
</clipPath>
<clipPath id="clip5_97_2">
<rect width="615" height="183" fill="white" transform="translate(-90 390)"/>
</clipPath>
<clipPath id="clip6_97_2">
<rect width="621.86" height="118.53" fill="white" transform="translate(-97 412)"/>
</clipPath>
<clipPath id="clip7_97_2">
<rect width="615" height="304" fill="white" transform="translate(-133 569)"/>
</clipPath>
<clipPath id="clip8_97_2">
<rect width="631" height="119" fill="white" transform="translate(-90 492)"/>
</clipPath>
<clipPath id="clip9_97_2">
<rect width="129.51" height="372.09" fill="white" transform="translate(35 330)"/>
</clipPath>
</defs>
</svg>
