<svg width="390" height="844" viewBox="0 0 390 844" fill="none" xmlns="http://www.w3.org/2000/svg">
<g clip-path="url(#clip0_110_2)">
<g clip-path="url(#clip1_110_2)">
<path d="M482 569H-133V873H482V569Z" fill="#F9E7C5"/>
<path d="M177.234 620.82H166.289V629.797H176.273V633.195H166.289V644H162.258V617.398H177.234V620.82ZM188.133 644H184.102V617.398H188.133V644ZM220.055 644H215.156L202.312 624.781C202.047 624.391 201.805 623.992 201.586 623.586C201.367 623.18 201.156 622.766 200.953 622.344C200.984 622.766 201.008 623.18 201.023 623.586C201.039 623.992 201.047 624.398 201.047 624.805V644H197.414V617.398H202.289L215.156 636.617C215.422 637.008 215.656 637.406 215.859 637.812C216.078 638.203 216.289 638.602 216.492 639.008C216.445 638.602 216.414 638.195 216.398 637.789C216.383 637.383 216.375 636.977 216.375 636.57V617.398H220.055V644ZM229.336 617.398C229.82 617.367 230.289 617.344 230.742 617.328C231.195 617.297 231.633 617.273 232.055 617.258C232.477 617.242 232.898 617.234 233.32 617.234C233.758 617.219 234.203 617.211 234.656 617.211C237.406 617.211 239.859 617.508 242.016 618.102C244.172 618.695 245.992 619.555 247.477 620.68C248.977 621.789 250.117 623.156 250.898 624.781C251.695 626.391 252.094 628.211 252.094 630.242C252.094 632.43 251.688 634.391 250.875 636.125C250.078 637.859 248.922 639.328 247.406 640.531C245.906 641.719 244.07 642.625 241.898 643.25C239.742 643.875 237.305 644.188 234.586 644.188C234.133 644.188 233.688 644.18 233.25 644.164C232.828 644.164 232.406 644.156 231.984 644.141C231.562 644.125 231.133 644.102 230.695 644.07C230.258 644.055 229.805 644.031 229.336 644V617.398ZM233.367 640.695C233.727 640.711 234.086 640.719 234.445 640.719C234.82 640.719 235.188 640.719 235.547 640.719C237.469 640.719 239.195 640.492 240.727 640.039C242.273 639.57 243.578 638.898 244.641 638.023C245.703 637.148 246.516 636.078 247.078 634.812C247.656 633.547 247.945 632.109 247.945 630.5C247.945 628.953 247.664 627.578 247.102 626.375C246.539 625.156 245.719 624.125 244.641 623.281C243.562 622.438 242.25 621.797 240.703 621.359C239.172 620.906 237.422 620.68 235.453 620.68C235.094 620.68 234.742 620.68 234.398 620.68C234.07 620.68 233.727 620.695 233.367 620.727V640.695ZM291.328 617.398C290.797 618.961 290.211 620.484 289.57 621.969C288.93 623.438 288.234 624.891 287.484 626.328C286.734 627.766 285.922 629.203 285.047 630.641C284.172 632.062 283.234 633.508 282.234 634.977V644H278.203V634.977C277.188 633.508 276.242 632.062 275.367 630.641C274.508 629.219 273.695 627.789 272.93 626.352C272.18 624.898 271.477 623.438 270.82 621.969C270.18 620.5 269.594 618.977 269.062 617.398H273.234C273.641 618.586 274.094 619.766 274.594 620.938C275.094 622.109 275.633 623.273 276.211 624.43C276.805 625.586 277.438 626.742 278.109 627.898C278.781 629.055 279.508 630.203 280.289 631.344C281.039 630.156 281.742 629 282.398 627.875C283.07 626.75 283.695 625.617 284.273 624.477C284.852 623.32 285.383 622.164 285.867 621.008C286.367 619.852 286.836 618.648 287.273 617.398H291.328ZM308.156 616.977C309.922 616.977 311.609 617.273 313.219 617.867C314.828 618.445 316.25 619.312 317.484 620.469C318.734 621.609 319.727 623.031 320.461 624.734C321.211 626.422 321.586 628.383 321.586 630.617C321.586 632.852 321.203 634.828 320.438 636.547C319.688 638.266 318.68 639.711 317.414 640.883C316.164 642.055 314.711 642.938 313.055 643.531C311.414 644.125 309.695 644.422 307.898 644.422C306.133 644.422 304.438 644.133 302.812 643.555C301.203 642.977 299.781 642.109 298.547 640.953C297.312 639.797 296.32 638.375 295.57 636.688C294.836 635 294.469 633.039 294.469 630.805C294.469 628.57 294.844 626.594 295.594 624.875C296.344 623.156 297.344 621.711 298.594 620.539C299.859 619.367 301.312 618.484 302.953 617.891C304.609 617.281 306.344 616.977 308.156 616.977ZM307.945 620.469C306.773 620.469 305.625 620.695 304.5 621.148C303.375 621.586 302.375 622.242 301.5 623.117C300.625 623.977 299.922 625.039 299.391 626.305C298.875 627.555 298.617 628.992 298.617 630.617C298.617 632.32 298.875 633.82 299.391 635.117C299.922 636.398 300.625 637.477 301.5 638.352C302.375 639.211 303.383 639.859 304.523 640.297C305.68 640.719 306.883 640.93 308.133 640.93C309.289 640.93 310.43 640.711 311.555 640.273C312.68 639.836 313.672 639.188 314.531 638.328C315.406 637.453 316.109 636.391 316.641 635.141C317.188 633.875 317.461 632.43 317.461 630.805C317.461 629.117 317.195 627.625 316.664 626.328C316.148 625.031 315.453 623.953 314.578 623.094C313.703 622.219 312.688 621.562 311.531 621.125C310.391 620.688 309.195 620.469 307.945 620.469ZM349.383 634.648C349.383 636.258 349.125 637.672 348.609 638.891C348.094 640.109 347.367 641.125 346.43 641.938C345.508 642.75 344.406 643.367 343.125 643.789C341.844 644.195 340.43 644.398 338.883 644.398C337.398 644.398 336.031 644.195 334.781 643.789C333.531 643.383 332.453 642.781 331.547 641.984C330.641 641.188 329.93 640.195 329.414 639.008C328.898 637.805 328.641 636.414 328.641 634.836V617.398H332.695V634.672C332.695 635.766 332.867 636.703 333.211 637.484C333.555 638.266 334.016 638.914 334.594 639.43C335.172 639.93 335.852 640.305 336.633 640.555C337.414 640.789 338.242 640.906 339.117 640.906C339.992 640.906 340.812 640.789 341.578 640.555C342.344 640.32 343.016 639.953 343.594 639.453C344.172 638.953 344.625 638.328 344.953 637.578C345.297 636.812 345.469 635.906 345.469 634.859V617.398H349.383V634.648ZM358.148 617.398C359.211 617.32 360.203 617.266 361.125 617.234C362.062 617.203 362.859 617.188 363.516 617.188C365.656 617.188 367.547 617.375 369.188 617.75C370.828 618.125 372.203 618.672 373.312 619.391C374.422 620.094 375.258 620.961 375.82 621.992C376.398 623.008 376.688 624.164 376.688 625.461C376.688 627.273 376.164 628.836 375.117 630.148C374.086 631.445 372.539 632.43 370.477 633.102C371.664 634.82 372.812 636.578 373.922 638.375C375.047 640.156 376.156 642.031 377.25 644H372.68C371.758 642.359 370.773 640.711 369.727 639.055C368.68 637.398 367.578 635.75 366.422 634.109C366.047 634.156 365.68 634.195 365.32 634.227C364.977 634.242 364.633 634.258 364.289 634.273C363.961 634.273 363.617 634.273 363.258 634.273C362.914 634.273 362.555 634.258 362.18 634.227V644H358.148V617.398ZM362.18 630.898C362.555 630.914 362.914 630.922 363.258 630.922C363.602 630.922 363.938 630.922 364.266 630.922C367 630.922 369.062 630.453 370.453 629.516C371.844 628.578 372.539 627.289 372.539 625.648C372.539 624.883 372.367 624.195 372.023 623.586C371.68 622.961 371.156 622.43 370.453 621.992C369.766 621.539 368.898 621.195 367.852 620.961C366.82 620.727 365.609 620.609 364.219 620.609C363.906 620.609 363.578 620.617 363.234 620.633C362.906 620.648 362.555 620.656 362.18 620.656V630.898ZM249.586 652.398C249.07 656.867 248.281 661.344 247.219 665.828C246.172 670.312 244.891 674.703 243.375 679H237.984L232.125 657.672L226.266 679H220.945C219.414 674.703 218.117 670.312 217.055 665.828C216.008 661.344 215.227 656.867 214.711 652.398H218.789C219.008 654.305 219.281 656.234 219.609 658.188C219.953 660.141 220.336 662.086 220.758 664.023C221.195 665.961 221.672 667.875 222.188 669.766C222.703 671.641 223.258 673.461 223.852 675.227L229.992 652.398H234.375L240.586 675.297C241.164 673.531 241.711 671.703 242.227 669.812C242.742 667.922 243.211 666.008 243.633 664.07C244.07 662.133 244.453 660.18 244.781 658.211C245.125 656.242 245.414 654.305 245.648 652.398H249.586ZM266.25 652.398C267.203 654.555 268.109 656.75 268.969 658.984C269.844 661.203 270.648 663.438 271.383 665.688C272.133 667.922 272.82 670.156 273.445 672.391C274.07 674.625 274.633 676.828 275.133 679H271.125C270.906 678.047 270.68 677.078 270.445 676.094C270.211 675.109 269.953 674.117 269.672 673.117H257.789C257.508 674.117 257.25 675.109 257.016 676.094C256.781 677.078 256.555 678.047 256.336 679H252.422C252.922 676.828 253.484 674.625 254.109 672.391C254.734 670.156 255.422 667.922 256.172 665.688C256.922 663.438 257.727 661.203 258.586 658.984C259.445 656.75 260.352 654.555 261.305 652.398H266.25ZM268.758 669.789C268.039 667.414 267.258 665.062 266.414 662.734C265.57 660.406 264.68 658.156 263.742 655.984C262.805 658.156 261.914 660.406 261.07 662.734C260.227 665.062 259.445 667.414 258.727 669.789H268.758ZM300.094 652.398C299.156 656.805 297.953 661.242 296.484 665.711C295.016 670.164 293.281 674.594 291.281 679H286.148C284.148 674.594 282.414 670.164 280.945 665.711C279.477 661.242 278.266 656.805 277.312 652.398H281.438C281.828 654.258 282.289 656.156 282.82 658.094C283.352 660.031 283.922 661.977 284.531 663.93C285.156 665.867 285.82 667.797 286.523 669.719C287.242 671.641 287.992 673.492 288.773 675.273C289.539 673.477 290.273 671.625 290.977 669.719C291.68 667.797 292.344 665.867 292.969 663.93C293.594 661.977 294.164 660.031 294.68 658.094C295.211 656.156 295.68 654.258 296.086 652.398H300.094ZM321.609 655.82H310.195V663.766H320.695V667.164H310.195V675.602H321.609V679H306.258V652.398H321.609V655.82Z" fill="#374655"/>
</g>
<g clip-path="url(#clip2_110_2)">
<path d="M540.307 551.5C540.307 562.448 532.559 571.317 522.996 571.317C521.526 571.317 520.085 571.111 518.727 570.714C515.275 580.234 509.329 586.518 502.579 586.518C498.283 586.518 494.305 583.963 491.089 579.663C488.303 580.821 485.296 581.456 482.149 581.456C480.5 581.456 478.892 581.282 477.34 580.948C469.315 593.816 456.162 602.194 441.303 602.194C426.445 602.194 412.28 593.15 404.366 579.441C403.091 579.679 401.788 579.806 400.457 579.806C399.584 579.806 398.711 579.758 397.866 579.647C392.862 583.836 386.694 586.28 380.041 586.28C374.165 586.28 368.676 584.376 364.033 581.059C357.962 590.262 349.078 596.069 339.195 596.069C338.863 596.069 338.53 596.069 338.211 596.038C332.362 599.385 325.751 601.274 318.765 601.274C310.061 601.274 301.953 598.338 295.161 593.309C290.116 597.688 284.226 600.195 277.919 600.195C269.368 600.195 261.537 595.562 255.604 587.914C248.092 595.562 238.21 600.195 227.385 600.195C219.956 600.195 212.97 598.021 206.886 594.181C205.444 594.372 203.961 594.499 202.478 594.61C197.627 597.418 192.235 598.973 186.539 598.973C181.161 598.973 176.061 597.577 171.431 595.07C164.21 601.512 155.298 605.304 145.693 605.304C136.088 605.304 126.843 601.369 119.553 594.705C116.448 597.101 113.038 598.767 109.448 599.544C102.366 606.272 93.7309 610.207 84.4169 610.207C71.9981 610.207 60.7991 603.193 52.8433 591.944C48.2417 590.278 44.0282 587.612 40.3969 584.169C38.6643 584.55 36.8902 584.741 35.0607 584.741C33.2311 584.741 31.3739 584.534 29.5997 584.138C25.1368 586.835 20.0501 588.358 14.6446 588.358C12.2329 588.358 9.87666 588.057 7.60359 587.47C-0.82342 597.846 -12.8541 604.336 -26.2153 604.336C-32.5356 604.336 -38.5648 602.876 -44.0396 600.242C-44.8989 600.306 -45.7582 600.337 -46.6314 600.337C-70.1938 600.337 -89.307 578.473 -89.307 551.5C-89.307 524.527 -70.1938 502.646 -46.6314 502.646C-45.7444 502.646 -44.8712 502.678 -44.0118 502.742C-38.5371 500.108 -32.5217 498.664 -26.2153 498.664C-12.8679 498.664 -0.83728 505.153 7.60359 515.514C9.87666 514.927 12.2329 514.626 14.6446 514.626C20.0501 514.626 25.1368 516.149 29.6136 518.862C31.3739 518.465 33.2034 518.259 35.0607 518.259C36.9179 518.259 38.6643 518.45 40.3969 518.83C44.0282 515.387 48.2279 512.722 52.8295 511.072C60.7714 499.806 71.9843 492.793 84.4169 492.793C93.7309 492.793 102.338 496.728 109.421 503.44C113.024 504.201 116.434 505.867 119.553 508.279C126.843 501.631 135.894 497.68 145.693 497.68C155.492 497.68 164.196 501.472 171.417 507.914C176.047 505.407 181.161 504.011 186.539 504.011C192.249 504.011 197.655 505.582 202.506 508.406C203.379 508.898 204.238 509.437 205.07 510.04C205.666 509.612 206.276 509.215 206.886 508.819C212.97 504.979 219.956 502.805 227.385 502.805C238.21 502.805 248.092 507.438 255.604 515.086C261.537 507.438 269.368 502.805 277.919 502.805C284.226 502.805 290.116 505.312 295.161 509.691C301.953 504.661 310.061 501.726 318.765 501.726C325.751 501.726 332.362 503.614 338.211 506.962C338.53 506.93 338.863 506.93 339.195 506.93C349.078 506.93 357.948 512.722 364.019 521.924C368.662 518.608 374.165 516.704 380.041 516.704C386.694 516.704 392.862 519.148 397.866 523.337C399.432 524.622 400.887 526.097 402.204 527.7C402.869 526.272 403.59 524.876 404.366 523.543C412.294 509.834 425.877 500.806 441.303 500.806C456.73 500.806 469.315 509.183 477.34 522.051C478.892 521.718 480.5 521.544 482.149 521.544C485.296 521.544 488.303 522.178 491.103 523.337C494.305 519.037 498.283 516.482 502.579 516.482C509.329 516.482 515.275 522.765 518.727 532.285C520.085 531.889 521.526 531.682 522.996 531.682C532.559 531.682 540.307 540.552 540.307 551.5Z" fill="#F2F2F2" stroke="#CECECE" stroke-miterlimit="10"/>
<path d="M206.886 508.819C206.276 509.215 205.666 509.612 205.07 510.04C204.238 509.437 203.379 508.898 202.506 508.406C203.989 508.501 205.444 508.644 206.886 508.819Z" fill="#F2F2F2" stroke="#CECECE" stroke-miterlimit="10"/>
</g>
<g clip-path="url(#clip3_110_2)">
<path d="M99.76 702.09C137.48 675.09 164.52 602 164.52 516.04C164.52 481.97 160.27 449.92 152.79 421.96L99.76 474.99V702.09Z" fill="#CC943A"/>
<path d="M46.73 421.97C39.25 449.93 35 481.98 35 516.05C35 602 62.04 675.1 99.76 702.1V475L46.73 421.97Z" fill="#FFB948"/>
<path d="M99.76 445.13V474.99L152.79 421.96C150.67 414.03 148.29 406.43 145.67 399.21L99.76 445.12V445.13Z" fill="#000066"/>
<path d="M99.76 445.13L53.85 399.22C51.23 406.44 48.85 414.04 46.73 421.97L99.76 475V445.14V445.13Z" fill="#000080"/>
<path d="M99.76 445.13L145.67 399.22C142.86 391.46 139.78 384.14 136.45 377.31L99.76 414V445.13Z" fill="#33B3A6"/>
<path d="M63.06 377.31C59.73 384.14 56.65 391.46 53.84 399.22L99.75 445.13V414L63.06 377.31Z" fill="#40E0D0"/>
<path d="M99.7599 330C85.7799 340 73.2799 356.34 63.0699 377.31L99.7599 414V330Z" fill="#FFB948"/>
<path d="M99.76 330V414.01L136.45 377.32C126.24 356.34 113.73 340 99.76 330Z" fill="#CC943A"/>
</g>
<path d="M-38.7976 712.568C-38.7976 712.568 94.5704 545.005 215.72 712.568Z" fill="#F9E7C5"/>
<path d="M-38.7976 712.568C-38.7976 712.568 94.5704 545.005 215.72 712.568" stroke="#F7CA84" stroke-width="3" stroke-miterlimit="10"/>
</g>
<defs>
<clipPath id="clip0_110_2">
<rect width="390" height="844" fill="white"/>
</clipPath>
<clipPath id="clip1_110_2">
<rect width="615" height="304" fill="white" transform="translate(-133 569)"/>
</clipPath>
<clipPath id="clip2_110_2">
<rect width="631" height="119" fill="white" transform="translate(-90 492)"/>
</clipPath>
<clipPath id="clip3_110_2">
<rect width="129.51" height="372.09" fill="white" transform="translate(35 330)"/>
</clipPath>
</defs>
</svg>
