<svg width="390" height="1524" viewBox="0 0 390 1524" fill="none" xmlns="http://www.w3.org/2000/svg">
<g clip-path="url(#clip0_110_48)">
<path d="M490 611H-125V769H490V611Z" fill="#F9E7C5"/>
<g clip-path="url(#clip1_110_48)">
<path d="M643.049 600.492C643.049 612.3 632.415 621.866 619.29 621.866C617.274 621.866 615.296 621.643 613.431 621.215C608.695 631.483 600.534 638.259 591.271 638.259C585.374 638.259 579.915 635.504 575.501 630.867C571.678 632.116 567.55 632.8 563.232 632.8C560.968 632.8 558.762 632.612 556.631 632.253C545.618 646.131 527.566 655.167 507.174 655.167C486.782 655.167 467.342 645.412 456.48 630.627C454.73 630.884 452.942 631.021 451.116 631.021C449.917 631.021 448.719 630.969 447.559 630.85C440.692 635.367 432.227 638.003 423.096 638.003C415.031 638.003 407.498 635.949 401.126 632.373C392.794 642.298 380.601 648.561 367.038 648.561C366.582 648.561 366.125 648.561 365.688 648.527C357.66 652.138 348.587 654.174 339 654.174C327.054 654.174 315.926 651.008 306.605 645.584C299.681 650.307 291.597 653.01 282.942 653.01C271.205 653.01 260.457 648.013 252.316 639.765C242.006 648.013 228.443 653.01 213.587 653.01C203.391 653.01 193.804 650.666 185.453 646.525C183.475 646.73 181.44 646.867 179.404 646.987C172.747 650.016 165.347 651.693 157.529 651.693C150.148 651.693 143.148 650.187 136.795 647.483C126.884 654.431 114.653 658.521 101.471 658.521C88.2884 658.521 75.6007 654.277 65.5951 647.089C61.3341 649.673 56.6547 651.47 51.728 652.309C42.0077 659.564 30.1569 663.808 17.3741 663.808C0.330262 663.808 -15.0396 656.245 -25.9583 644.112C-32.2736 642.315 -38.0563 639.44 -43.0401 635.727C-45.4179 636.137 -47.8527 636.343 -50.3636 636.343C-52.8745 636.343 -55.4235 636.12 -57.8583 635.692C-63.9834 638.602 -70.9645 640.244 -78.3832 640.244C-81.693 640.244 -84.9268 639.919 -88.0464 639.286C-99.6118 650.478 -116.123 657.477 -134.46 657.477C-143.134 657.477 -151.409 655.902 -158.923 653.062C-160.102 653.13 -161.281 653.164 -162.48 653.164C-194.817 653.164 -221.049 629.583 -221.049 600.492C-221.049 571.401 -194.817 547.802 -162.48 547.802C-161.262 547.802 -160.064 547.837 -158.885 547.905C-151.371 545.064 -143.115 543.507 -134.46 543.507C-116.142 543.507 -99.6309 550.506 -88.0464 561.681C-84.9268 561.048 -81.693 560.722 -78.3832 560.722C-70.9645 560.722 -63.9834 562.365 -57.8393 565.291C-55.4235 564.864 -52.9126 564.641 -50.3636 564.641C-47.8147 564.641 -45.4179 564.847 -43.0401 565.257C-38.0563 561.544 -32.2926 558.669 -25.9773 556.889C-15.0776 544.739 0.311239 537.176 17.3741 537.176C30.1569 537.176 41.9696 541.419 51.6899 548.658C56.6357 549.479 61.3151 551.276 65.5951 553.877C75.6007 546.707 88.0221 542.446 101.471 542.446C114.919 542.446 126.865 546.536 136.776 553.484C143.129 550.78 150.148 549.274 157.529 549.274C165.366 549.274 172.785 550.968 179.442 554.014C180.641 554.545 181.82 555.127 182.961 555.777C183.779 555.315 184.616 554.887 185.453 554.459C193.804 550.318 203.391 547.974 213.587 547.974C228.443 547.974 242.006 552.97 252.316 561.219C260.457 552.97 271.205 547.974 282.942 547.974C291.597 547.974 299.681 550.677 306.605 555.4C315.926 549.976 327.054 546.81 339 546.81C348.587 546.81 357.66 548.846 365.688 552.457C366.125 552.423 366.582 552.423 367.038 552.423C380.601 552.423 392.775 558.669 401.107 568.594C407.479 565.018 415.031 562.964 423.096 562.964C432.227 562.964 440.692 565.599 447.559 570.117C449.708 571.503 451.706 573.095 453.513 574.823C454.426 573.283 455.415 571.777 456.48 570.34C467.361 555.554 486.002 545.817 507.174 545.817C528.346 545.817 545.618 554.853 556.631 568.731C558.762 568.372 560.968 568.183 563.232 568.183C567.55 568.183 571.678 568.868 575.52 570.117C579.915 565.48 585.374 562.725 591.271 562.725C600.534 562.725 608.695 569.501 613.431 579.769C615.296 579.341 617.274 579.118 619.29 579.118C632.415 579.118 643.049 588.684 643.049 600.492Z" fill="#F2F2F2" stroke="#CECECE" stroke-miterlimit="10"/>
<path d="M185.453 554.459C184.616 554.887 183.779 555.315 182.961 555.777C181.82 555.127 180.641 554.545 179.442 554.014C181.478 554.117 183.475 554.271 185.453 554.459Z" fill="#F2F2F2" stroke="#CECECE" stroke-miterlimit="10"/>
</g>
<g clip-path="url(#clip2_110_48)">
<path d="M188.525 502.049V514.366C118.9 537.31 56.5965 574.793 5.7973 622.903C-10.7373 638.577 -26.0767 655.363 -40.0714 673.162C-53.1198 689.73 -64.9729 707.168 -75.5312 725.378C-80.0633 733.155 -84.3463 741.101 -88.3804 749.143C-84.3463 740.69 -80.1131 732.358 -75.581 724.17C-65.0227 705.018 -53.1696 686.663 -40.1212 669.226C-26.1265 650.484 -10.7871 632.805 5.74749 616.31C56.5965 565.664 118.9 526.201 188.525 502.049Z" fill="#000080"/>
<path d="M464.434 747.235C460.699 739.845 456.764 732.527 452.631 725.378C442.073 707.168 430.219 689.73 417.221 673.162C403.176 655.363 387.887 638.578 371.302 622.903C320.453 574.793 258.15 537.31 188.525 514.366V502.049C258.1 526.201 320.403 565.664 371.252 616.31C387.837 632.805 403.176 650.484 417.171 669.226C430.17 686.663 442.023 705.018 452.581 724.17C456.764 731.73 460.699 739.434 464.434 747.235Z" fill="#000066"/>
<path d="M188.525 514.366V1400.7C112.376 1374.28 44.9924 1329.55 -8.24716 1271.9C-27.9194 1250.62 -45.5995 1227.56 -61.1381 1203C-87.2847 1161.63 -107.206 1116.03 -119.507 1067.46C-122.695 1055.07 -125.334 1042.49 -127.476 1029.73C-129.717 1016.31 -131.41 1002.71 -132.506 988.918C-133.502 976.529 -134 963.994 -134 951.363C-134 949.696 -134 948.054 -133.9 946.388C-133.203 875.914 -116.967 809.111 -88.3804 749.143C-84.3463 741.1 -80.0632 733.154 -75.5312 725.378C-64.9729 707.167 -53.1198 689.73 -40.0713 673.162C-26.0767 655.362 -10.7373 638.577 5.79731 622.903C56.5965 574.793 118.9 537.31 188.525 514.366Z" fill="#40E0D0"/>
<path d="M511 951.363C511 963.994 510.502 976.505 509.506 988.894C508.41 1002.68 506.717 1016.28 504.476 1029.71C502.334 1042.46 499.695 1055.05 496.557 1067.43C484.206 1116.03 464.285 1161.65 438.138 1203.02C422.599 1227.58 404.87 1250.65 385.197 1271.95C332.008 1329.57 264.624 1374.28 188.525 1400.7V514.366C258.15 537.31 320.453 574.793 371.302 622.903C387.887 638.577 403.176 655.362 417.221 673.162C430.219 689.73 442.073 707.167 452.631 725.378C456.764 732.526 460.699 739.844 464.434 747.235C493.868 808.217 510.502 876.324 510.95 948.247C510.95 949.286 510.95 950.324 510.95 951.363H511Z" fill="#33B3A6"/>
</g>
<mask id="mask0_110_48" style="mask-type:alpha" maskUnits="userSpaceOnUse" x="-254" y="1145" width="877" height="379">
<rect x="-254" y="1145" width="877" height="379" fill="#D9D9D9"/>
</mask>
<g mask="url(#mask0_110_48)">
<path d="M188.525 847.203V1697.96C112.376 1672.6 44.9924 1629.66 -8.24716 1574.33C-27.9194 1553.91 -45.5995 1531.77 -61.1381 1508.19C-87.2847 1468.48 -107.206 1424.71 -119.507 1378.09C-122.695 1366.2 -125.334 1354.12 -127.476 1341.88C-129.717 1328.99 -131.41 1315.94 -132.506 1302.71C-133.502 1290.81 -134 1278.78 -134 1266.66C-134 1265.06 -134 1263.48 -133.9 1261.88C-133.203 1194.24 -116.967 1130.12 -88.3804 1072.56C-84.3463 1064.84 -80.0632 1057.21 -75.5312 1049.74C-64.9729 1032.27 -53.1198 1015.53 -40.0713 999.625C-26.0767 982.54 -10.7373 966.428 5.79731 951.383C56.5965 905.205 118.9 869.226 188.525 847.203Z" fill="#40E0D0"/>
<path d="M511 1266.66C511 1278.78 510.502 1290.79 509.506 1302.68C508.41 1315.92 506.717 1328.97 504.476 1341.86C502.334 1354.1 499.695 1366.18 496.557 1378.07C484.206 1424.71 464.285 1468.5 438.138 1508.21C422.599 1531.79 404.87 1553.93 385.197 1574.38C332.008 1629.69 264.624 1672.6 188.525 1697.96V847.203C258.15 869.226 320.453 905.205 371.302 951.383C387.887 966.428 403.176 982.54 417.221 999.625C430.219 1015.53 442.073 1032.27 452.631 1049.74C456.764 1056.61 460.699 1063.63 464.434 1070.72C493.868 1129.26 510.502 1194.63 510.95 1263.67C510.95 1264.66 510.95 1265.66 510.95 1266.66H511Z" fill="#33B3A6"/>
</g>
<path d="M34.3984 1481.61H23.4531V1490.59H33.4375V1493.99H23.4531V1504.79H19.4219V1478.19H34.3984V1481.61ZM45.2969 1504.79H41.2656V1478.19H45.2969V1504.79ZM77.2188 1504.79H72.3203L59.4766 1485.57C59.2109 1485.18 58.9688 1484.78 58.75 1484.38C58.5312 1483.97 58.3203 1483.56 58.1172 1483.13C58.1484 1483.56 58.1719 1483.97 58.1875 1484.38C58.2031 1484.78 58.2109 1485.19 58.2109 1485.59V1504.79H54.5781V1478.19H59.4531L72.3203 1497.41C72.5859 1497.8 72.8203 1498.2 73.0234 1498.6C73.2422 1498.99 73.4531 1499.39 73.6562 1499.8C73.6094 1499.39 73.5781 1498.99 73.5625 1498.58C73.5469 1498.17 73.5391 1497.77 73.5391 1497.36V1478.19H77.2188V1504.79ZM86.5 1478.19C86.9844 1478.16 87.4531 1478.13 87.9062 1478.12C88.3594 1478.09 88.7969 1478.06 89.2188 1478.05C89.6406 1478.03 90.0625 1478.02 90.4844 1478.02C90.9219 1478.01 91.3672 1478 91.8203 1478C94.5703 1478 97.0234 1478.3 99.1797 1478.89C101.336 1479.49 103.156 1480.34 104.641 1481.47C106.141 1482.58 107.281 1483.95 108.062 1485.57C108.859 1487.18 109.258 1489 109.258 1491.03C109.258 1493.22 108.852 1495.18 108.039 1496.92C107.242 1498.65 106.086 1500.12 104.57 1501.32C103.07 1502.51 101.234 1503.42 99.0625 1504.04C96.9062 1504.67 94.4688 1504.98 91.75 1504.98C91.2969 1504.98 90.8516 1504.97 90.4141 1504.95C89.9922 1504.95 89.5703 1504.95 89.1484 1504.93C88.7266 1504.92 88.2969 1504.89 87.8594 1504.86C87.4219 1504.84 86.9688 1504.82 86.5 1504.79V1478.19ZM90.5312 1501.49C90.8906 1501.5 91.25 1501.51 91.6094 1501.51C91.9844 1501.51 92.3516 1501.51 92.7109 1501.51C94.6328 1501.51 96.3594 1501.28 97.8906 1500.83C99.4375 1500.36 100.742 1499.69 101.805 1498.81C102.867 1497.94 103.68 1496.87 104.242 1495.6C104.82 1494.34 105.109 1492.9 105.109 1491.29C105.109 1489.74 104.828 1488.37 104.266 1487.17C103.703 1485.95 102.883 1484.92 101.805 1484.07C100.727 1483.23 99.4141 1482.59 97.8672 1482.15C96.3359 1481.7 94.5859 1481.47 92.6172 1481.47C92.2578 1481.47 91.9062 1481.47 91.5625 1481.47C91.2344 1481.47 90.8906 1481.49 90.5312 1481.52V1501.49ZM148.492 1478.19C147.961 1479.75 147.375 1481.27 146.734 1482.76C146.094 1484.23 145.398 1485.68 144.648 1487.12C143.898 1488.56 143.086 1489.99 142.211 1491.43C141.336 1492.85 140.398 1494.3 139.398 1495.77V1504.79H135.367V1495.77C134.352 1494.3 133.406 1492.85 132.531 1491.43C131.672 1490.01 130.859 1488.58 130.094 1487.14C129.344 1485.69 128.641 1484.23 127.984 1482.76C127.344 1481.29 126.758 1479.77 126.227 1478.19H130.398C130.805 1479.38 131.258 1480.56 131.758 1481.73C132.258 1482.9 132.797 1484.06 133.375 1485.22C133.969 1486.38 134.602 1487.53 135.273 1488.69C135.945 1489.84 136.672 1490.99 137.453 1492.13C138.203 1490.95 138.906 1489.79 139.562 1488.67C140.234 1487.54 140.859 1486.41 141.438 1485.27C142.016 1484.11 142.547 1482.95 143.031 1481.8C143.531 1480.64 144 1479.44 144.438 1478.19H148.492ZM165.32 1477.77C167.086 1477.77 168.773 1478.06 170.383 1478.66C171.992 1479.24 173.414 1480.1 174.648 1481.26C175.898 1482.4 176.891 1483.82 177.625 1485.52C178.375 1487.21 178.75 1489.17 178.75 1491.41C178.75 1493.64 178.367 1495.62 177.602 1497.34C176.852 1499.06 175.844 1500.5 174.578 1501.67C173.328 1502.84 171.875 1503.73 170.219 1504.32C168.578 1504.92 166.859 1505.21 165.062 1505.21C163.297 1505.21 161.602 1504.92 159.977 1504.34C158.367 1503.77 156.945 1502.9 155.711 1501.74C154.477 1500.59 153.484 1499.17 152.734 1497.48C152 1495.79 151.633 1493.83 151.633 1491.59C151.633 1489.36 152.008 1487.38 152.758 1485.67C153.508 1483.95 154.508 1482.5 155.758 1481.33C157.023 1480.16 158.477 1479.27 160.117 1478.68C161.773 1478.07 163.508 1477.77 165.32 1477.77ZM165.109 1481.26C163.938 1481.26 162.789 1481.49 161.664 1481.94C160.539 1482.38 159.539 1483.03 158.664 1483.91C157.789 1484.77 157.086 1485.83 156.555 1487.09C156.039 1488.34 155.781 1489.78 155.781 1491.41C155.781 1493.11 156.039 1494.61 156.555 1495.91C157.086 1497.19 157.789 1498.27 158.664 1499.14C159.539 1500 160.547 1500.65 161.688 1501.09C162.844 1501.51 164.047 1501.72 165.297 1501.72C166.453 1501.72 167.594 1501.5 168.719 1501.06C169.844 1500.63 170.836 1499.98 171.695 1499.12C172.57 1498.24 173.273 1497.18 173.805 1495.93C174.352 1494.67 174.625 1493.22 174.625 1491.59C174.625 1489.91 174.359 1488.42 173.828 1487.12C173.312 1485.82 172.617 1484.74 171.742 1483.88C170.867 1483.01 169.852 1482.35 168.695 1481.92C167.555 1481.48 166.359 1481.26 165.109 1481.26ZM206.547 1495.44C206.547 1497.05 206.289 1498.46 205.773 1499.68C205.258 1500.9 204.531 1501.92 203.594 1502.73C202.672 1503.54 201.57 1504.16 200.289 1504.58C199.008 1504.99 197.594 1505.19 196.047 1505.19C194.562 1505.19 193.195 1504.99 191.945 1504.58C190.695 1504.17 189.617 1503.57 188.711 1502.77C187.805 1501.98 187.094 1500.99 186.578 1499.8C186.062 1498.59 185.805 1497.2 185.805 1495.63V1478.19H189.859V1495.46C189.859 1496.56 190.031 1497.49 190.375 1498.27C190.719 1499.06 191.18 1499.7 191.758 1500.22C192.336 1500.72 193.016 1501.09 193.797 1501.34C194.578 1501.58 195.406 1501.7 196.281 1501.7C197.156 1501.7 197.977 1501.58 198.742 1501.34C199.508 1501.11 200.18 1500.74 200.758 1500.24C201.336 1499.74 201.789 1499.12 202.117 1498.37C202.461 1497.6 202.633 1496.7 202.633 1495.65V1478.19H206.547V1495.44ZM215.312 1478.19C216.375 1478.11 217.367 1478.06 218.289 1478.02C219.227 1477.99 220.023 1477.98 220.68 1477.98C222.82 1477.98 224.711 1478.17 226.352 1478.54C227.992 1478.92 229.367 1479.46 230.477 1480.18C231.586 1480.88 232.422 1481.75 232.984 1482.78C233.562 1483.8 233.852 1484.95 233.852 1486.25C233.852 1488.06 233.328 1489.63 232.281 1490.94C231.25 1492.24 229.703 1493.22 227.641 1493.89C228.828 1495.61 229.977 1497.37 231.086 1499.17C232.211 1500.95 233.32 1502.82 234.414 1504.79H229.844C228.922 1503.15 227.938 1501.5 226.891 1499.84C225.844 1498.19 224.742 1496.54 223.586 1494.9C223.211 1494.95 222.844 1494.99 222.484 1495.02C222.141 1495.03 221.797 1495.05 221.453 1495.06C221.125 1495.06 220.781 1495.06 220.422 1495.06C220.078 1495.06 219.719 1495.05 219.344 1495.02V1504.79H215.312V1478.19ZM219.344 1491.69C219.719 1491.7 220.078 1491.71 220.422 1491.71C220.766 1491.71 221.102 1491.71 221.43 1491.71C224.164 1491.71 226.227 1491.24 227.617 1490.31C229.008 1489.37 229.703 1488.08 229.703 1486.44C229.703 1485.67 229.531 1484.99 229.188 1484.38C228.844 1483.75 228.32 1483.22 227.617 1482.78C226.93 1482.33 226.062 1481.99 225.016 1481.75C223.984 1481.52 222.773 1481.4 221.383 1481.4C221.07 1481.4 220.742 1481.41 220.398 1481.42C220.07 1481.44 219.719 1481.45 219.344 1481.45V1491.69ZM287.172 1478.19C286.656 1482.66 285.867 1487.13 284.805 1491.62C283.758 1496.1 282.477 1500.49 280.961 1504.79H275.57L269.711 1483.46L263.852 1504.79H258.531C257 1500.49 255.703 1496.1 254.641 1491.62C253.594 1487.13 252.812 1482.66 252.297 1478.19H256.375C256.594 1480.09 256.867 1482.02 257.195 1483.98C257.539 1485.93 257.922 1487.88 258.344 1489.81C258.781 1491.75 259.258 1493.67 259.773 1495.56C260.289 1497.43 260.844 1499.25 261.438 1501.02L267.578 1478.19H271.961L278.172 1501.09C278.75 1499.32 279.297 1497.49 279.812 1495.6C280.328 1493.71 280.797 1491.8 281.219 1489.86C281.656 1487.92 282.039 1485.97 282.367 1484C282.711 1482.03 283 1480.09 283.234 1478.19H287.172ZM303.836 1478.19C304.789 1480.34 305.695 1482.54 306.555 1484.77C307.43 1486.99 308.234 1489.23 308.969 1491.48C309.719 1493.71 310.406 1495.95 311.031 1498.18C311.656 1500.42 312.219 1502.62 312.719 1504.79H308.711C308.492 1503.84 308.266 1502.87 308.031 1501.88C307.797 1500.9 307.539 1499.91 307.258 1498.91H295.375C295.094 1499.91 294.836 1500.9 294.602 1501.88C294.367 1502.87 294.141 1503.84 293.922 1504.79H290.008C290.508 1502.62 291.07 1500.42 291.695 1498.18C292.32 1495.95 293.008 1493.71 293.758 1491.48C294.508 1489.23 295.312 1486.99 296.172 1484.77C297.031 1482.54 297.938 1480.34 298.891 1478.19H303.836ZM306.344 1495.58C305.625 1493.2 304.844 1490.85 304 1488.52C303.156 1486.2 302.266 1483.95 301.328 1481.77C300.391 1483.95 299.5 1486.2 298.656 1488.52C297.812 1490.85 297.031 1493.2 296.312 1495.58H306.344ZM337.68 1478.19C336.742 1482.59 335.539 1487.03 334.07 1491.5C332.602 1495.95 330.867 1500.38 328.867 1504.79H323.734C321.734 1500.38 320 1495.95 318.531 1491.5C317.062 1487.03 315.852 1482.59 314.898 1478.19H319.023C319.414 1480.05 319.875 1481.95 320.406 1483.88C320.938 1485.82 321.508 1487.77 322.117 1489.72C322.742 1491.66 323.406 1493.59 324.109 1495.51C324.828 1497.43 325.578 1499.28 326.359 1501.06C327.125 1499.27 327.859 1497.42 328.562 1495.51C329.266 1493.59 329.93 1491.66 330.555 1489.72C331.18 1487.77 331.75 1485.82 332.266 1483.88C332.797 1481.95 333.266 1480.05 333.672 1478.19H337.68ZM359.195 1481.61H347.781V1489.56H358.281V1492.95H347.781V1501.39H359.195V1504.79H343.844V1478.19H359.195V1481.61Z" fill="#374655"/>
</g>
<defs>
<clipPath id="clip0_110_48">
<rect width="390" height="1524" fill="white"/>
</clipPath>
<clipPath id="clip1_110_48">
<rect width="866" height="128.344" fill="white" transform="translate(-222 536.32)"/>
</clipPath>
<clipPath id="clip2_110_48">
<rect width="645" height="898.651" fill="white" transform="translate(-134 502.049)"/>
</clipPath>
</defs>
</svg>
