<svg width="390" height="1515" viewBox="0 0 390 1515" fill="none" xmlns="http://www.w3.org/2000/svg">
<g clip-path="url(#clip0_97_178)">
<rect width="390" height="1515" fill="#E2EDF3"/>
<path d="M492 487.731H-123V760.576H492V487.731Z" fill="#F9E7C5"/>
<g clip-path="url(#clip1_97_178)">
<path d="M537.77 309.28C537.77 309.28 537.74 309.23 537.71 309.23H518.99C502.45 309.23 488.35 296.39 487.7 279.86C487.36 271.39 490.49 263.63 495.77 257.9C495.8 257.87 495.78 257.81 495.74 257.8C491.22 256.63 486.48 256 481.6 256C462.35 256 445.36 265.67 435.21 280.41C422.76 298.52 402.11 309.23 380.14 309.23H376.19C359.65 309.23 345.55 296.39 344.9 279.86C344.56 271.39 347.69 263.63 352.97 257.9C353 257.87 352.98 257.81 352.94 257.8C348.42 256.63 343.68 256 338.8 256C319.55 256 302.56 265.67 292.41 280.41C279.96 298.52 259.31 309.23 237.34 309.23H232.2C215.66 309.23 201.56 296.39 200.9 279.86C200.57 271.39 203.69 263.63 208.97 257.9C209 257.87 208.99 257.81 208.95 257.8C204.43 256.63 199.69 256 194.81 256C175.55 256 158.56 265.67 148.42 280.41C135.97 298.52 115.32 309.23 93.35 309.23H89.4C72.86 309.23 58.76 296.39 58.1 279.86C57.77 271.39 60.89 263.63 66.17 257.9C66.2 257.87 66.19 257.81 66.15 257.8C61.63 256.63 56.89 256 52.01 256C32.75 256 15.76 265.67 5.62 280.41C-6.83 298.52 -27.48 309.23 -49.45 309.23H-77.94C-77.94 309.23 -78 309.25 -78 309.28V368.47C-78 368.47 -77.97 368.53 -77.94 368.53H537.8C537.8 368.53 537.86 368.5 537.86 368.47V312.26C537.86 311.26 537.82 310.27 537.77 309.28Z" fill="#88CCFF" stroke="#0071BC" stroke-width="6" stroke-miterlimit="10" stroke-linecap="round"/>
</g>
<g clip-path="url(#clip2_97_178)">
<path d="M554 315H-61V498H554V315Z" fill="#88CCFF"/>
</g>
<g clip-path="url(#clip3_97_178)">
<path d="M488.77 414.28C488.77 414.28 488.74 414.23 488.71 414.23H469.99C453.45 414.23 439.35 401.39 438.7 384.86C438.36 376.39 441.49 368.63 446.77 362.9C446.8 362.87 446.78 362.81 446.74 362.8C442.22 361.63 437.48 361 432.6 361C413.35 361 396.36 370.67 386.21 385.41C373.76 403.52 353.11 414.23 331.14 414.23H327.19C310.65 414.23 296.55 401.39 295.9 384.86C295.56 376.39 298.69 368.63 303.97 362.9C304 362.87 303.98 362.81 303.94 362.8C299.42 361.63 294.68 361 289.8 361C270.55 361 253.56 370.67 243.41 385.41C230.96 403.52 210.31 414.23 188.34 414.23H183.2C166.66 414.23 152.56 401.39 151.9 384.86C151.57 376.39 154.69 368.63 159.97 362.9C160 362.87 159.99 362.81 159.95 362.8C155.43 361.63 150.69 361 145.81 361C126.55 361 109.56 370.67 99.42 385.41C86.97 403.52 66.32 414.23 44.35 414.23H40.4C23.86 414.23 9.76001 401.39 9.10001 384.86C8.77001 376.39 11.89 368.63 17.17 362.9C17.2 362.87 17.19 362.81 17.15 362.8C12.63 361.63 7.88999 361 3.00999 361C-16.25 361 -33.24 370.67 -43.38 385.41C-55.83 403.52 -76.48 414.23 -98.45 414.23H-126.94C-126.94 414.23 -127 414.25 -127 414.28V473.47C-127 473.47 -126.97 473.53 -126.94 473.53H488.8C488.8 473.53 488.86 473.5 488.86 473.47V417.26C488.86 416.26 488.82 415.27 488.77 414.28Z" fill="#88CCFF" stroke="#0071BC" stroke-width="6" stroke-miterlimit="10" stroke-linecap="round"/>
</g>
<g clip-path="url(#clip4_97_178)">
<path d="M492 456H-123V639H492V456Z" fill="#88CCFF"/>
</g>
<g clip-path="url(#clip5_97_178)">
<path d="M537.77 510.28C537.77 510.28 537.74 510.23 537.71 510.23H518.99C502.45 510.23 488.35 497.39 487.7 480.86C487.36 472.39 490.49 464.63 495.77 458.9C495.8 458.87 495.78 458.81 495.74 458.8C491.22 457.63 486.48 457 481.6 457C462.35 457 445.36 466.67 435.21 481.41C422.76 499.52 402.11 510.23 380.14 510.23H376.19C359.65 510.23 345.55 497.39 344.9 480.86C344.56 472.39 347.69 464.63 352.97 458.9C353 458.87 352.98 458.81 352.94 458.8C348.42 457.63 343.68 457 338.8 457C319.55 457 302.56 466.67 292.41 481.41C279.96 499.52 259.31 510.23 237.34 510.23H232.2C215.66 510.23 201.56 497.39 200.9 480.86C200.57 472.39 203.69 464.63 208.97 458.9C209 458.87 208.99 458.81 208.95 458.8C204.43 457.63 199.69 457 194.81 457C175.55 457 158.56 466.67 148.42 481.41C135.97 499.52 115.32 510.23 93.35 510.23H89.4C72.86 510.23 58.76 497.39 58.1 480.86C57.77 472.39 60.89 464.63 66.17 458.9C66.2 458.87 66.19 458.81 66.15 458.8C61.63 457.63 56.89 457 52.01 457C32.75 457 15.76 466.67 5.62 481.41C-6.83 499.52 -27.48 510.23 -49.45 510.23H-77.94C-77.94 510.23 -78 510.25 -78 510.28V569.47C-78 569.47 -77.97 569.53 -77.94 569.53H537.8C537.8 569.53 537.86 569.5 537.86 569.47V513.26C537.86 512.26 537.82 511.27 537.77 510.28Z" fill="#88CCFF" stroke="#0071BC" stroke-width="6" stroke-miterlimit="10" stroke-linecap="round"/>
</g>
<g clip-path="url(#clip6_97_178)">
<path d="M645.049 592.492C645.049 604.299 634.415 613.865 621.29 613.865C619.274 613.865 617.296 613.643 615.431 613.215C610.695 623.483 602.534 630.259 593.271 630.259C587.374 630.259 581.915 627.504 577.501 622.867C573.678 624.116 569.55 624.8 565.232 624.8C562.968 624.8 560.762 624.612 558.631 624.253C547.618 638.131 529.566 647.166 509.174 647.166C488.782 647.166 469.342 637.412 458.48 622.627C456.73 622.884 454.942 623.021 453.116 623.021C451.917 623.021 450.719 622.969 449.559 622.849C442.692 627.367 434.227 630.002 425.096 630.002C417.031 630.002 409.498 627.949 403.126 624.372C394.794 634.298 382.601 640.561 369.038 640.561C368.582 640.561 368.125 640.561 367.688 640.527C359.66 644.137 350.587 646.174 341 646.174C329.054 646.174 317.926 643.008 308.605 637.583C301.681 642.306 293.597 645.01 284.942 645.01C273.205 645.01 262.457 640.013 254.316 631.765C244.006 640.013 230.443 645.01 215.587 645.01C205.391 645.01 195.804 642.666 187.453 638.524C185.475 638.73 183.44 638.867 181.404 638.987C174.747 642.015 167.347 643.692 159.529 643.692C152.148 643.692 145.148 642.187 138.795 639.483C128.884 646.43 116.653 650.52 103.471 650.52C90.2884 650.52 77.6007 646.276 67.5951 639.089C63.3341 641.673 58.6547 643.47 53.728 644.309C44.0077 651.564 32.1569 655.808 19.3741 655.808C2.33026 655.808 -13.0396 648.244 -23.9583 636.112C-30.2736 634.315 -36.0563 631.44 -41.0401 627.726C-43.4179 628.137 -45.8527 628.343 -48.3636 628.343C-50.8745 628.343 -53.4235 628.12 -55.8583 627.692C-61.9834 630.601 -68.9645 632.244 -76.3832 632.244C-79.693 632.244 -82.9268 631.919 -86.0464 631.286C-97.6118 642.477 -114.123 649.477 -132.46 649.477C-141.134 649.477 -149.409 647.902 -156.923 645.061C-158.102 645.13 -159.281 645.164 -160.48 645.164C-192.817 645.164 -219.049 621.583 -219.049 592.492C-219.049 563.4 -192.817 539.802 -160.48 539.802C-159.262 539.802 -158.064 539.836 -156.885 539.905C-149.371 537.064 -141.115 535.507 -132.46 535.507C-114.142 535.507 -97.6309 542.506 -86.0464 553.68C-82.9268 553.047 -79.693 552.722 -76.3832 552.722C-68.9645 552.722 -61.9834 554.365 -55.8393 557.291C-53.4235 556.863 -50.9126 556.641 -48.3636 556.641C-45.8147 556.641 -43.4179 556.846 -41.0401 557.257C-36.0563 553.544 -30.2926 550.669 -23.9773 548.889C-13.0776 536.739 2.31124 529.175 19.3741 529.175C32.1569 529.175 43.9696 533.419 53.6899 540.658C58.6357 541.479 63.3151 543.276 67.5951 545.877C77.6007 538.707 90.0221 534.446 103.471 534.446C116.919 534.446 128.865 538.536 138.776 545.484C145.129 542.78 152.148 541.274 159.529 541.274C167.366 541.274 174.785 542.968 181.442 546.014C182.641 546.545 183.82 547.126 184.961 547.777C185.779 547.315 186.616 546.887 187.453 546.459C195.804 542.318 205.391 539.973 215.587 539.973C230.443 539.973 244.006 544.97 254.316 553.218C262.457 544.97 273.205 539.973 284.942 539.973C293.597 539.973 301.681 542.677 308.605 547.4C317.926 541.976 329.054 538.81 341 538.81C350.587 538.81 359.66 540.846 367.688 544.457C368.125 544.423 368.582 544.423 369.038 544.423C382.601 544.423 394.775 550.669 403.107 560.594C409.479 557.017 417.031 554.964 425.096 554.964C434.227 554.964 442.692 557.599 449.559 562.117C451.708 563.503 453.706 565.095 455.513 566.823C456.426 565.283 457.415 563.777 458.48 562.339C469.361 547.554 488.002 537.817 509.174 537.817C530.346 537.817 547.618 546.853 558.631 560.731C560.762 560.372 562.968 560.183 565.232 560.183C569.55 560.183 573.678 560.868 577.52 562.117C581.915 557.479 587.374 554.724 593.271 554.724C602.534 554.724 610.695 561.501 615.431 571.768C617.296 571.341 619.274 571.118 621.29 571.118C634.415 571.118 645.049 580.684 645.049 592.492Z" fill="#F2F2F2" stroke="#CECECE" stroke-miterlimit="10"/>
<path d="M187.453 546.459C186.616 546.887 185.779 547.315 184.961 547.777C183.82 547.126 182.641 546.545 181.442 546.014C183.478 546.117 185.475 546.271 187.453 546.459Z" fill="#F2F2F2" stroke="#CECECE" stroke-miterlimit="10"/>
</g>
<g clip-path="url(#clip7_97_178)">
<path d="M190.525 493.049V505.366C120.9 528.31 58.5965 565.793 7.79733 613.903C-8.7373 629.577 -24.0767 646.363 -38.0713 664.162C-51.1197 680.73 -62.9729 698.168 -73.5311 716.378C-78.0632 724.155 -82.3463 732.101 -86.3803 740.143C-82.3463 731.69 -78.113 723.358 -73.5809 715.17C-63.0227 696.018 -51.1695 677.663 -38.1211 660.226C-24.1265 641.484 -8.78711 623.805 7.74752 607.31C58.5965 556.664 120.9 517.201 190.525 493.049Z" fill="#000080"/>
<path d="M466.434 738.235C462.699 730.845 458.764 723.527 454.631 716.378C444.073 698.168 432.219 680.73 419.221 664.162C405.176 646.363 389.887 629.577 373.302 613.903C322.453 565.793 260.15 528.31 190.525 505.366V493.049C260.1 517.201 322.403 556.664 373.252 607.31C389.837 623.805 405.176 641.484 419.171 660.226C432.17 677.663 444.023 696.018 454.581 715.17C458.764 722.73 462.699 730.434 466.434 738.235Z" fill="#000066"/>
<path d="M190.525 505.366V1391.7C114.376 1365.28 46.9924 1320.55 -6.24716 1262.9C-25.9194 1241.62 -43.5995 1218.56 -59.1381 1194C-85.2847 1152.63 -105.206 1107.03 -117.507 1058.46C-120.695 1046.07 -123.334 1033.49 -125.476 1020.73C-127.717 1007.31 -129.41 993.709 -130.506 979.918C-131.502 967.529 -132 954.994 -132 942.363C-132 940.696 -132 939.054 -131.9 937.388C-131.203 866.914 -114.967 800.111 -86.3804 740.143C-82.3463 732.1 -78.0632 724.154 -73.5312 716.378C-62.9729 698.167 -51.1198 680.73 -38.0713 664.162C-24.0767 646.362 -8.73732 629.577 7.79731 613.903C58.5965 565.793 120.9 528.31 190.525 505.366Z" fill="#40E0D0"/>
<path d="M513 942.363C513 954.994 512.502 967.505 511.506 979.894C510.41 993.685 508.717 1007.28 506.476 1020.71C504.334 1033.46 501.695 1046.05 498.557 1058.43C486.206 1107.03 466.285 1152.65 440.138 1194.02C424.599 1218.58 406.87 1241.65 387.197 1262.95C334.008 1320.57 266.624 1365.28 190.525 1391.7V505.366C260.15 528.31 322.453 565.793 373.302 613.903C389.887 629.577 405.176 646.362 419.221 664.162C432.219 680.73 444.073 698.167 454.631 716.378C458.764 723.526 462.699 730.844 466.434 738.235C495.868 799.217 512.502 867.324 512.95 939.247C512.95 940.286 512.95 941.324 512.95 942.363H513Z" fill="#33B3A6"/>
</g>
<mask id="mask0_97_178" style="mask-type:alpha" maskUnits="userSpaceOnUse" x="-252" y="1137" width="877" height="379">
<rect x="-252" y="1137" width="877" height="379" fill="#D9D9D9"/>
</mask>
<g mask="url(#mask0_97_178)">
<path d="M190.525 839.204V1689.96C114.376 1664.6 46.9924 1621.67 -6.24716 1566.33C-25.9194 1545.91 -43.5995 1523.77 -59.1381 1500.19C-85.2847 1460.48 -105.206 1416.71 -117.507 1370.09C-120.695 1358.2 -123.334 1346.12 -125.476 1333.88C-127.717 1320.99 -129.41 1307.94 -130.506 1294.71C-131.502 1282.81 -132 1270.78 -132 1258.66C-132 1257.06 -132 1255.48 -131.9 1253.88C-131.203 1186.24 -114.967 1122.12 -86.3804 1064.56C-82.3463 1056.84 -78.0632 1049.21 -73.5312 1041.74C-62.9729 1024.27 -51.1198 1007.53 -38.0713 991.625C-24.0767 974.54 -8.73732 958.429 7.79731 943.383C58.5965 897.205 120.9 861.226 190.525 839.204Z" fill="#40E0D0"/>
<path d="M513 1258.66C513 1270.78 512.502 1282.79 511.506 1294.68C510.41 1307.92 508.717 1320.97 506.476 1333.86C504.334 1346.1 501.695 1358.18 498.557 1370.07C486.206 1416.71 466.285 1460.5 440.138 1500.21C424.599 1523.79 406.87 1545.93 387.197 1566.38C334.008 1621.69 266.624 1664.6 190.525 1689.96V839.204C260.15 861.226 322.453 897.205 373.302 943.383C389.887 958.429 405.176 974.54 419.221 991.625C432.219 1007.53 444.073 1024.27 454.631 1041.74C458.764 1048.61 462.699 1055.63 466.434 1062.72C495.868 1121.26 512.502 1186.63 512.95 1255.67C512.95 1256.66 512.95 1257.66 512.95 1258.66H513Z" fill="#33B3A6"/>
</g>
<path d="M42.3984 1464.95H31.4531V1473.93H41.4375V1477.33H31.4531V1488.13H27.4219V1461.53H42.3984V1464.95ZM53.2969 1488.13H49.2656V1461.53H53.2969V1488.13ZM85.2188 1488.13H80.3203L67.4766 1468.91C67.2109 1468.52 66.9688 1468.12 66.75 1467.72C66.5312 1467.31 66.3203 1466.9 66.1172 1466.48C66.1484 1466.9 66.1719 1467.31 66.1875 1467.72C66.2031 1468.12 66.2109 1468.53 66.2109 1468.94V1488.13H62.5781V1461.53H67.4531L80.3203 1480.75C80.5859 1481.14 80.8203 1481.54 81.0234 1481.94C81.2422 1482.34 81.4531 1482.73 81.6562 1483.14C81.6094 1482.73 81.5781 1482.33 81.5625 1481.92C81.5469 1481.52 81.5391 1481.11 81.5391 1480.7V1461.53H85.2188V1488.13ZM94.5 1461.53C94.9844 1461.5 95.4531 1461.48 95.9062 1461.46C96.3594 1461.43 96.7969 1461.41 97.2188 1461.39C97.6406 1461.37 98.0625 1461.37 98.4844 1461.37C98.9219 1461.35 99.3672 1461.34 99.8203 1461.34C102.57 1461.34 105.023 1461.64 107.18 1462.23C109.336 1462.83 111.156 1463.69 112.641 1464.81C114.141 1465.92 115.281 1467.29 116.062 1468.91C116.859 1470.52 117.258 1472.34 117.258 1474.37C117.258 1476.56 116.852 1478.52 116.039 1480.26C115.242 1481.99 114.086 1483.46 112.57 1484.66C111.07 1485.85 109.234 1486.76 107.062 1487.38C104.906 1488.01 102.469 1488.32 99.75 1488.32C99.2969 1488.32 98.8516 1488.31 98.4141 1488.3C97.9922 1488.3 97.5703 1488.29 97.1484 1488.27C96.7266 1488.26 96.2969 1488.23 95.8594 1488.2C95.4219 1488.19 94.9688 1488.16 94.5 1488.13V1461.53ZM98.5312 1484.83C98.8906 1484.84 99.25 1484.85 99.6094 1484.85C99.9844 1484.85 100.352 1484.85 100.711 1484.85C102.633 1484.85 104.359 1484.62 105.891 1484.17C107.438 1483.7 108.742 1483.03 109.805 1482.16C110.867 1481.28 111.68 1480.21 112.242 1478.94C112.82 1477.68 113.109 1476.24 113.109 1474.63C113.109 1473.09 112.828 1471.71 112.266 1470.51C111.703 1469.29 110.883 1468.26 109.805 1467.41C108.727 1466.57 107.414 1465.93 105.867 1465.49C104.336 1465.04 102.586 1464.81 100.617 1464.81C100.258 1464.81 99.9062 1464.81 99.5625 1464.81C99.2344 1464.81 98.8906 1464.83 98.5312 1464.86V1484.83ZM156.492 1461.53C155.961 1463.09 155.375 1464.62 154.734 1466.1C154.094 1467.57 153.398 1469.02 152.648 1470.46C151.898 1471.9 151.086 1473.34 150.211 1474.77C149.336 1476.19 148.398 1477.64 147.398 1479.11V1488.13H143.367V1479.11C142.352 1477.64 141.406 1476.19 140.531 1474.77C139.672 1473.35 138.859 1471.92 138.094 1470.48C137.344 1469.03 136.641 1467.57 135.984 1466.1C135.344 1464.63 134.758 1463.11 134.227 1461.53H138.398C138.805 1462.72 139.258 1463.9 139.758 1465.07C140.258 1466.24 140.797 1467.41 141.375 1468.56C141.969 1469.72 142.602 1470.87 143.273 1472.03C143.945 1473.19 144.672 1474.34 145.453 1475.48C146.203 1474.29 146.906 1473.13 147.562 1472.01C148.234 1470.88 148.859 1469.75 149.438 1468.61C150.016 1467.45 150.547 1466.3 151.031 1465.14C151.531 1463.98 152 1462.78 152.438 1461.53H156.492ZM173.32 1461.11C175.086 1461.11 176.773 1461.41 178.383 1462C179.992 1462.58 181.414 1463.44 182.648 1464.6C183.898 1465.74 184.891 1467.16 185.625 1468.87C186.375 1470.55 186.75 1472.52 186.75 1474.75C186.75 1476.98 186.367 1478.96 185.602 1480.68C184.852 1482.4 183.844 1483.84 182.578 1485.02C181.328 1486.19 179.875 1487.07 178.219 1487.66C176.578 1488.26 174.859 1488.55 173.062 1488.55C171.297 1488.55 169.602 1488.27 167.977 1487.69C166.367 1487.11 164.945 1486.24 163.711 1485.09C162.477 1483.93 161.484 1482.51 160.734 1480.82C160 1479.13 159.633 1477.17 159.633 1474.94C159.633 1472.7 160.008 1470.73 160.758 1469.01C161.508 1467.29 162.508 1465.84 163.758 1464.67C165.023 1463.5 166.477 1462.62 168.117 1462.02C169.773 1461.41 171.508 1461.11 173.32 1461.11ZM173.109 1464.6C171.938 1464.6 170.789 1464.83 169.664 1465.28C168.539 1465.72 167.539 1466.37 166.664 1467.25C165.789 1468.11 165.086 1469.17 164.555 1470.44C164.039 1471.69 163.781 1473.12 163.781 1474.75C163.781 1476.45 164.039 1477.95 164.555 1479.25C165.086 1480.53 165.789 1481.61 166.664 1482.48C167.539 1483.34 168.547 1483.99 169.688 1484.43C170.844 1484.85 172.047 1485.06 173.297 1485.06C174.453 1485.06 175.594 1484.84 176.719 1484.41C177.844 1483.97 178.836 1483.32 179.695 1482.46C180.57 1481.59 181.273 1480.52 181.805 1479.27C182.352 1478.01 182.625 1476.56 182.625 1474.94C182.625 1473.25 182.359 1471.76 181.828 1470.46C181.312 1469.16 180.617 1468.09 179.742 1467.23C178.867 1466.35 177.852 1465.69 176.695 1465.26C175.555 1464.82 174.359 1464.6 173.109 1464.6ZM214.547 1478.78C214.547 1480.39 214.289 1481.8 213.773 1483.02C213.258 1484.24 212.531 1485.26 211.594 1486.07C210.672 1486.88 209.57 1487.5 208.289 1487.92C207.008 1488.33 205.594 1488.53 204.047 1488.53C202.562 1488.53 201.195 1488.33 199.945 1487.92C198.695 1487.52 197.617 1486.91 196.711 1486.12C195.805 1485.32 195.094 1484.33 194.578 1483.14C194.062 1481.94 193.805 1480.55 193.805 1478.97V1461.53H197.859V1478.8C197.859 1479.9 198.031 1480.84 198.375 1481.62C198.719 1482.4 199.18 1483.05 199.758 1483.56C200.336 1484.06 201.016 1484.44 201.797 1484.69C202.578 1484.92 203.406 1485.04 204.281 1485.04C205.156 1485.04 205.977 1484.92 206.742 1484.69C207.508 1484.45 208.18 1484.09 208.758 1483.59C209.336 1483.09 209.789 1482.46 210.117 1481.71C210.461 1480.94 210.633 1480.04 210.633 1478.99V1461.53H214.547V1478.78ZM223.312 1461.53C224.375 1461.45 225.367 1461.4 226.289 1461.37C227.227 1461.34 228.023 1461.32 228.68 1461.32C230.82 1461.32 232.711 1461.51 234.352 1461.88C235.992 1462.26 237.367 1462.8 238.477 1463.52C239.586 1464.23 240.422 1465.09 240.984 1466.12C241.562 1467.14 241.852 1468.3 241.852 1469.59C241.852 1471.41 241.328 1472.97 240.281 1474.28C239.25 1475.58 237.703 1476.56 235.641 1477.23C236.828 1478.95 237.977 1480.71 239.086 1482.51C240.211 1484.29 241.32 1486.16 242.414 1488.13H237.844C236.922 1486.49 235.938 1484.84 234.891 1483.19C233.844 1481.53 232.742 1479.88 231.586 1478.24C231.211 1478.29 230.844 1478.33 230.484 1478.36C230.141 1478.37 229.797 1478.39 229.453 1478.41C229.125 1478.41 228.781 1478.41 228.422 1478.41C228.078 1478.41 227.719 1478.39 227.344 1478.36V1488.13H223.312V1461.53ZM227.344 1475.03C227.719 1475.05 228.078 1475.05 228.422 1475.05C228.766 1475.05 229.102 1475.05 229.43 1475.05C232.164 1475.05 234.227 1474.59 235.617 1473.65C237.008 1472.71 237.703 1471.42 237.703 1469.78C237.703 1469.02 237.531 1468.33 237.188 1467.72C236.844 1467.09 236.32 1466.56 235.617 1466.12C234.93 1465.67 234.062 1465.33 233.016 1465.09C231.984 1464.86 230.773 1464.74 229.383 1464.74C229.07 1464.74 228.742 1464.75 228.398 1464.77C228.07 1464.78 227.719 1464.79 227.344 1464.79V1475.03ZM295.172 1461.53C294.656 1466 293.867 1470.48 292.805 1474.96C291.758 1479.44 290.477 1483.84 288.961 1488.13H283.57L277.711 1466.8L271.852 1488.13H266.531C265 1483.84 263.703 1479.44 262.641 1474.96C261.594 1470.48 260.812 1466 260.297 1461.53H264.375C264.594 1463.44 264.867 1465.37 265.195 1467.32C265.539 1469.27 265.922 1471.22 266.344 1473.16C266.781 1475.09 267.258 1477.01 267.773 1478.9C268.289 1480.77 268.844 1482.59 269.438 1484.36L275.578 1461.53H279.961L286.172 1484.43C286.75 1482.66 287.297 1480.84 287.812 1478.94C288.328 1477.05 288.797 1475.14 289.219 1473.2C289.656 1471.27 290.039 1469.31 290.367 1467.34C290.711 1465.37 291 1463.44 291.234 1461.53H295.172ZM311.836 1461.53C312.789 1463.69 313.695 1465.88 314.555 1468.12C315.43 1470.34 316.234 1472.57 316.969 1474.82C317.719 1477.05 318.406 1479.29 319.031 1481.52C319.656 1483.76 320.219 1485.96 320.719 1488.13H316.711C316.492 1487.18 316.266 1486.21 316.031 1485.23C315.797 1484.24 315.539 1483.25 315.258 1482.25H303.375C303.094 1483.25 302.836 1484.24 302.602 1485.23C302.367 1486.21 302.141 1487.18 301.922 1488.13H298.008C298.508 1485.96 299.07 1483.76 299.695 1481.52C300.32 1479.29 301.008 1477.05 301.758 1474.82C302.508 1472.57 303.312 1470.34 304.172 1468.12C305.031 1465.88 305.938 1463.69 306.891 1461.53H311.836ZM314.344 1478.92C313.625 1476.55 312.844 1474.19 312 1471.87C311.156 1469.54 310.266 1467.29 309.328 1465.12C308.391 1467.29 307.5 1469.54 306.656 1471.87C305.812 1474.19 305.031 1476.55 304.312 1478.92H314.344ZM345.68 1461.53C344.742 1465.94 343.539 1470.37 342.07 1474.84C340.602 1479.3 338.867 1483.73 336.867 1488.13H331.734C329.734 1483.73 328 1479.3 326.531 1474.84C325.062 1470.37 323.852 1465.94 322.898 1461.53H327.023C327.414 1463.39 327.875 1465.29 328.406 1467.23C328.938 1469.16 329.508 1471.11 330.117 1473.06C330.742 1475 331.406 1476.93 332.109 1478.85C332.828 1480.77 333.578 1482.62 334.359 1484.41C335.125 1482.61 335.859 1480.76 336.562 1478.85C337.266 1476.93 337.93 1475 338.555 1473.06C339.18 1471.11 339.75 1469.16 340.266 1467.23C340.797 1465.29 341.266 1463.39 341.672 1461.53H345.68ZM367.195 1464.95H355.781V1472.9H366.281V1476.3H355.781V1484.73H367.195V1488.13H351.844V1461.53H367.195V1464.95Z" fill="#374655"/>
</g>
<defs>
<clipPath id="clip0_97_178">
<rect width="390" height="1515" fill="white"/>
</clipPath>
<clipPath id="clip1_97_178">
<rect width="621.86" height="118.53" fill="white" transform="translate(-81 253)"/>
</clipPath>
<clipPath id="clip2_97_178">
<rect width="615" height="183" fill="white" transform="translate(-61 315)"/>
</clipPath>
<clipPath id="clip3_97_178">
<rect width="621.86" height="118.53" fill="white" transform="translate(-130 358)"/>
</clipPath>
<clipPath id="clip4_97_178">
<rect width="615" height="183" fill="white" transform="translate(-123 456)"/>
</clipPath>
<clipPath id="clip5_97_178">
<rect width="621.86" height="118.53" fill="white" transform="translate(-81 454)"/>
</clipPath>
<clipPath id="clip6_97_178">
<rect width="866" height="128.344" fill="white" transform="translate(-220 528.32)"/>
</clipPath>
<clipPath id="clip7_97_178">
<rect width="645" height="898.651" fill="white" transform="translate(-132 493.049)"/>
</clipPath>
</defs>
</svg>
