<?xml version="1.0" encoding="UTF-8"?><svg id="Layer_2" xmlns="http://www.w3.org/2000/svg" viewBox="0 0 621.96 392.25"><defs><style>.cls-1{stroke:#0071bc;stroke-linecap:round;stroke-miterlimit:10;stroke-width:6px;}.cls-1,.cls-2{fill:#8cf;}.cls-2{stroke-width:0px;}</style></defs><g id="Layer_1-2"><path class="cls-1" d="m618.84,56.28s-.03-.05-.06-.05h-18.72c-16.54,0-30.64-12.84-31.29-29.37-.34-8.47,2.79-16.23,8.07-21.96.03-.03.01-.09-.03-.1-4.52-1.17-9.26-1.8-14.14-1.8-19.25,0-36.24,9.67-46.39,24.41-12.45,18.11-33.1,28.82-55.07,28.82h-3.95c-16.54,0-30.64-12.84-31.29-29.37-.34-8.47,2.79-16.23,8.07-21.96.03-.03.01-.09-.03-.1-4.52-1.17-9.26-1.8-14.14-1.8-19.25,0-36.24,9.67-46.39,24.41-12.45,18.11-33.1,28.82-55.07,28.82h-5.14c-16.54,0-30.64-12.84-31.3-29.37-.33-8.47,2.79-16.23,8.07-21.96.03-.03.02-.09-.02-.1-4.52-1.17-9.26-1.8-14.14-1.8-19.26,0-36.25,9.67-46.39,24.41-12.45,18.11-33.1,28.82-55.07,28.82h-3.95c-16.54,0-30.64-12.84-31.3-29.37-.33-8.47,2.79-16.23,8.07-21.96.03-.03.02-.09-.02-.1-4.52-1.17-9.26-1.8-14.14-1.8-19.26,0-36.25,9.67-46.39,24.41-12.45,18.11-33.1,28.82-55.07,28.82H3.13s-.06.02-.06.05v59.19s.03.06.06.06h615.74s.06-.03.06-.06v-56.21c0-1-.04-1.99-.09-2.98Z"/><rect class="cls-2" y="59.27" width="621.96" height="332.99"/></g></svg>